<ttFont>
    <TTGlyph name="A" xMin="37" yMin="0" xMax="444" yMax="573">
      <contour>
        <pt x="191" y="502" on="1"/>
        <pt x="164" y="328" on="1"/>
        <pt x="326" y="328" on="1"/>
        <pt x="353" y="502" on="1"/>
      </contour>
      <contour>
        <pt x="354" y="0" on="1"/>
        <pt x="274" y="0" on="1"/>
        <pt x="314" y="256" on="1"/>
        <pt x="153" y="256" on="1"/>
        <pt x="113" y="0" on="1"/>
        <pt x="37" y="0" on="1"/>
        <pt x="127" y="573" on="1"/>
        <pt x="444" y="573" on="1"/>
      </contour>
    </TTGlyph>
    <TTGlyph name="AE" xMin="37" yMin="0" xMax="690" yMax="574">
      <contour>
        <pt x="274" y="0" on="1"/>
        <pt x="314" y="255" on="1"/>
        <pt x="153" y="255" on="1"/>
        <pt x="113" y="0" on="1"/>
        <pt x="37" y="0" on="1"/>
        <pt x="127" y="573" on="1"/>
        <pt x="313" y="573" on="0"/>
        <pt x="690" y="574" on="1"/>
        <pt x="679" y="502" on="1"/>
        <pt x="437" y="502" on="1"/>
        <pt x="410" y="327" on="1"/>
        <pt x="651" y="327" on="1"/>
        <pt x="640" y="255" on="1"/>
        <pt x="398" y="255" on="1"/>
        <pt x="371" y="78" on="1"/>
        <pt x="612" y="78" on="1"/>
        <pt x="600" y="0" on="1"/>
      </contour>
      <contour>
        <pt x="326" y="327" on="1"/>
        <pt x="353" y="502" on="1"/>
        <pt x="191" y="502" on="1"/>
        <pt x="164" y="327" on="1"/>
      </contour>
    </TTGlyph>
    <TTGlyph name="Aacute" xMin="37" yMin="0" xMax="444" yMax="809">
      <contour>
        <pt x="191" y="502" on="1"/>
        <pt x="164" y="328" on="1"/>
        <pt x="326" y="328" on="1"/>
        <pt x="353" y="502" on="1"/>
      </contour>
      <contour>
        <pt x="354" y="0" on="1"/>
        <pt x="274" y="0" on="1"/>
        <pt x="314" y="256" on="1"/>
        <pt x="153" y="256" on="1"/>
        <pt x="113" y="0" on="1"/>
        <pt x="37" y="0" on="1"/>
        <pt x="127" y="573" on="1"/>
        <pt x="444" y="573" on="1"/>
      </contour>
      <contour>
        <pt x="324" y="809" on="1"/>
        <pt x="97" y="676" on="1"/>
        <pt x="143" y="614" on="1"/>
        <pt x="369" y="748" on="1"/>
      </contour>
    </TTGlyph>
    <TTGlyph name="Acircumflex" xMin="37" yMin="0" xMax="444" yMax="803">
      <contour>
        <pt x="260" y="803" on="1"/>
        <pt x="377" y="664" on="1"/>
        <pt x="313" y="610" on="1"/>
        <pt x="244" y="702" on="1"/>
        <pt x="145" y="610" on="1"/>
        <pt x="98" y="664" on="1"/>
      </contour>
      <contour>
        <pt x="191" y="502" on="1"/>
        <pt x="164" y="328" on="1"/>
        <pt x="326" y="328" on="1"/>
        <pt x="353" y="502" on="1"/>
      </contour>
      <contour>
        <pt x="354" y="0" on="1"/>
        <pt x="274" y="0" on="1"/>
        <pt x="314" y="256" on="1"/>
        <pt x="153" y="256" on="1"/>
        <pt x="113" y="0" on="1"/>
        <pt x="37" y="0" on="1"/>
        <pt x="127" y="573" on="1"/>
        <pt x="444" y="573" on="1"/>
      </contour>
    </TTGlyph>
    <TTGlyph name="Adieresis" xMin="37" yMin="0" xMax="444" yMax="758">
      <contour>
        <pt x="105" y="758" on="1"/>
        <pt x="84" y="625" on="1"/>
        <pt x="160" y="625" on="1"/>
        <pt x="181" y="758" on="1"/>
      </contour>
      <contour>
        <pt x="290" y="758" on="1"/>
        <pt x="268" y="625" on="1"/>
        <pt x="344" y="625" on="1"/>
        <pt x="366" y="758" on="1"/>
      </contour>
      <contour>
        <pt x="191" y="502" on="1"/>
        <pt x="164" y="328" on="1"/>
        <pt x="326" y="328" on="1"/>
        <pt x="353" y="502" on="1"/>
      </contour>
      <contour>
        <pt x="354" y="0" on="1"/>
        <pt x="274" y="0" on="1"/>
        <pt x="314" y="256" on="1"/>
        <pt x="153" y="256" on="1"/>
        <pt x="113" y="0" on="1"/>
        <pt x="37" y="0" on="1"/>
        <pt x="127" y="573" on="1"/>
        <pt x="444" y="573" on="1"/>
      </contour>
    </TTGlyph>
    <TTGlyph name="Agrave" xMin="37" yMin="0" xMax="444" yMax="799">
      <contour>
        <pt x="172" y="799" on="1"/>
        <pt x="355" y="666" on="1"/>
        <pt x="291" y="604" on="1"/>
        <pt x="108" y="737" on="1"/>
      </contour>
      <contour>
        <pt x="191" y="502" on="1"/>
        <pt x="164" y="328" on="1"/>
        <pt x="326" y="328" on="1"/>
        <pt x="353" y="502" on="1"/>
      </contour>
      <contour>
        <pt x="354" y="0" on="1"/>
        <pt x="274" y="0" on="1"/>
        <pt x="314" y="256" on="1"/>
        <pt x="153" y="256" on="1"/>
        <pt x="113" y="0" on="1"/>
        <pt x="37" y="0" on="1"/>
        <pt x="127" y="573" on="1"/>
        <pt x="444" y="573" on="1"/>
      </contour>
    </TTGlyph>
    <TTGlyph name="Aring" xMin="37" yMin="0" xMax="444" yMax="821">
      <contour>
        <pt x="82" y="612" on="1"/>
        <pt x="115" y="821" on="1"/>
        <pt x="305" y="821" on="1"/>
        <pt x="272" y="612" on="1"/>
      </contour>
      <contour>
        <pt x="244" y="777" on="1"/>
        <pt x="166" y="776" on="1"/>
        <pt x="147" y="655" on="1"/>
        <pt x="224" y="655" on="1"/>
      </contour>
      <contour>
        <pt x="191" y="502" on="1"/>
        <pt x="164" y="328" on="1"/>
        <pt x="326" y="328" on="1"/>
        <pt x="353" y="502" on="1"/>
      </contour>
      <contour>
        <pt x="354" y="0" on="1"/>
        <pt x="274" y="0" on="1"/>
        <pt x="314" y="256" on="1"/>
        <pt x="153" y="256" on="1"/>
        <pt x="113" y="0" on="1"/>
        <pt x="37" y="0" on="1"/>
        <pt x="127" y="573" on="1"/>
        <pt x="444" y="573" on="1"/>
      </contour>
    </TTGlyph>
    <TTGlyph name="Atilde" xMin="37" yMin="0" xMax="479" yMax="785">
      <contour>
        <pt x="186" y="725" on="1"/>
        <pt x="266" y="725" on="1"/>
        <pt x="253" y="638" on="1"/>
        <pt x="456" y="638" on="1"/>
        <pt x="479" y="785" on="1"/>
        <pt x="417" y="785" on="1"/>
        <pt x="403" y="702" on="1"/>
        <pt x="328" y="702" on="1"/>
        <pt x="341" y="785" on="1"/>
        <pt x="136" y="785" on="1"/>
        <pt x="113" y="638" on="1"/>
        <pt x="172" y="638" on="1"/>
      </contour>
      <contour>
        <pt x="191" y="502" on="1"/>
        <pt x="164" y="328" on="1"/>
        <pt x="326" y="328" on="1"/>
        <pt x="353" y="502" on="1"/>
      </contour>
      <contour>
        <pt x="354" y="0" on="1"/>
        <pt x="274" y="0" on="1"/>
        <pt x="314" y="256" on="1"/>
        <pt x="153" y="256" on="1"/>
        <pt x="113" y="0" on="1"/>
        <pt x="37" y="0" on="1"/>
        <pt x="127" y="573" on="1"/>
        <pt x="444" y="573" on="1"/>
      </contour>
    </TTGlyph>
    <TTGlyph name="B" xMin="37" yMin="0" xMax="408" yMax="573">
      <contour>
        <pt x="191" y="502" on="1"/>
        <pt x="166" y="338" on="1"/>
        <pt x="287" y="338" on="1"/>
        <pt x="312" y="502" on="1"/>
      </contour>
      <contour>
        <pt x="37" y="0" on="1"/>
        <pt x="127" y="573" on="1"/>
        <pt x="403" y="573" on="1"/>
        <pt x="367" y="338" on="1"/>
        <pt x="408" y="338" on="1"/>
        <pt x="354" y="0" on="1"/>
      </contour>
      <contour>
        <pt x="125" y="77" on="1"/>
        <pt x="287" y="77" on="1"/>
        <pt x="316" y="266" on="1"/>
        <pt x="155" y="266" on="1"/>
      </contour>
    </TTGlyph>
    <TTGlyph name="C" xMin="37" yMin="0" xMax="444" yMax="573">
      <contour>
        <pt x="357" y="499" on="1"/>
        <pt x="196" y="499" on="1"/>
        <pt x="128" y="72" on="1"/>
        <pt x="357" y="72" on="1"/>
        <pt x="346" y="0" on="1"/>
        <pt x="37" y="0" on="1"/>
        <pt x="127" y="573" on="1"/>
        <pt x="444" y="573" on="1"/>
        <pt x="419" y="410" on="1"/>
        <pt x="343" y="410" on="1"/>
      </contour>
    </TTGlyph>
    <TTGlyph name="Ccedilla" xMin="50" yMin="-174" xMax="459" yMax="573">
      <contour>
        <pt x="293" y="0" on="1"/>
        <pt x="221" y="-174" on="1"/>
        <pt x="135" y="-174" on="1"/>
        <pt x="215" y="0" on="1"/>
        <pt x="50" y="0" on="1"/>
        <pt x="141" y="573" on="1"/>
        <pt x="459" y="573" on="1"/>
        <pt x="432" y="410" on="1"/>
        <pt x="356" y="410" on="1"/>
        <pt x="371" y="499" on="1"/>
        <pt x="209" y="499" on="1"/>
        <pt x="141" y="72" on="1"/>
        <pt x="371" y="72" on="1"/>
        <pt x="359" y="0" on="1"/>
      </contour>
    </TTGlyph>
    <TTGlyph name="D" xMin="37" yMin="0" xMax="424" yMax="573">
      <contour>
        <pt x="125" y="78" on="1"/>
        <pt x="256" y="78" on="1"/>
        <pt x="280" y="102" on="1"/>
        <pt x="339" y="471" on="1"/>
        <pt x="323" y="501" on="1"/>
        <pt x="191" y="501" on="1"/>
      </contour>
      <contour>
        <pt x="37" y="0" on="1"/>
        <pt x="127" y="573" on="1"/>
        <pt x="352" y="573" on="1"/>
        <pt x="424" y="440" on="1"/>
        <pt x="374" y="123" on="1"/>
        <pt x="252" y="0" on="1"/>
      </contour>
    </TTGlyph>
    <TTGlyph name="E" xMin="37" yMin="0" xMax="444" yMax="574">
      <contour>
        <pt x="367" y="78" on="1"/>
        <pt x="354" y="0" on="1"/>
        <pt x="37" y="0" on="1"/>
        <pt x="127" y="573" on="1"/>
        <pt x="444" y="574" on="1"/>
        <pt x="433" y="502" on="1"/>
        <pt x="191" y="502" on="1"/>
        <pt x="172" y="378" on="1"/>
        <pt x="414" y="378" on="1"/>
        <pt x="402" y="306" on="1"/>
        <pt x="161" y="306" on="1"/>
        <pt x="125" y="78" on="1"/>
      </contour>
    </TTGlyph>
    <TTGlyph name="Eacute" xMin="37" yMin="0" xMax="444" yMax="799">
      <contour>
        <pt x="367" y="78" on="1"/>
        <pt x="354" y="0" on="1"/>
        <pt x="37" y="0" on="1"/>
        <pt x="127" y="573" on="1"/>
        <pt x="444" y="574" on="1"/>
        <pt x="433" y="502" on="1"/>
        <pt x="191" y="502" on="1"/>
        <pt x="172" y="378" on="1"/>
        <pt x="414" y="378" on="1"/>
        <pt x="402" y="306" on="1"/>
        <pt x="161" y="306" on="1"/>
        <pt x="125" y="78" on="1"/>
      </contour>
      <contour>
        <pt x="322" y="799" on="1"/>
        <pt x="95" y="666" on="1"/>
        <pt x="141" y="604" on="1"/>
        <pt x="368" y="737" on="1"/>
      </contour>
    </TTGlyph>
    <TTGlyph name="Ecircumflex" xMin="37" yMin="0" xMax="444" yMax="803">
      <contour>
        <pt x="367" y="78" on="1"/>
        <pt x="354" y="0" on="1"/>
        <pt x="37" y="0" on="1"/>
        <pt x="127" y="573" on="1"/>
        <pt x="444" y="574" on="1"/>
        <pt x="433" y="502" on="1"/>
        <pt x="191" y="502" on="1"/>
        <pt x="172" y="378" on="1"/>
        <pt x="414" y="378" on="1"/>
        <pt x="402" y="306" on="1"/>
        <pt x="161" y="306" on="1"/>
        <pt x="125" y="78" on="1"/>
      </contour>
      <contour>
        <pt x="260" y="803" on="1"/>
        <pt x="377" y="664" on="1"/>
        <pt x="313" y="610" on="1"/>
        <pt x="244" y="702" on="1"/>
        <pt x="145" y="610" on="1"/>
        <pt x="98" y="664" on="1"/>
      </contour>
    </TTGlyph>
    <TTGlyph name="Edieresis" xMin="37" yMin="0" xMax="444" yMax="748">
      <contour>
        <pt x="103" y="748" on="1"/>
        <pt x="83" y="614" on="1"/>
        <pt x="159" y="614" on="1"/>
        <pt x="179" y="748" on="1"/>
      </contour>
      <contour>
        <pt x="288" y="748" on="1"/>
        <pt x="267" y="614" on="1"/>
        <pt x="343" y="614" on="1"/>
        <pt x="364" y="748" on="1"/>
      </contour>
      <contour>
        <pt x="367" y="78" on="1"/>
        <pt x="354" y="0" on="1"/>
        <pt x="37" y="0" on="1"/>
        <pt x="127" y="573" on="1"/>
        <pt x="444" y="574" on="1"/>
        <pt x="433" y="502" on="1"/>
        <pt x="191" y="502" on="1"/>
        <pt x="172" y="378" on="1"/>
        <pt x="414" y="378" on="1"/>
        <pt x="402" y="306" on="1"/>
        <pt x="161" y="306" on="1"/>
        <pt x="125" y="78" on="1"/>
      </contour>
    </TTGlyph>
    <TTGlyph name="Egrave" xMin="37" yMin="0" xMax="444" yMax="788">
      <contour>
        <pt x="170" y="788" on="1"/>
        <pt x="354" y="655" on="1"/>
        <pt x="289" y="594" on="1"/>
        <pt x="105" y="727" on="1"/>
      </contour>
      <contour>
        <pt x="367" y="78" on="1"/>
        <pt x="354" y="0" on="1"/>
        <pt x="37" y="0" on="1"/>
        <pt x="127" y="573" on="1"/>
        <pt x="444" y="574" on="1"/>
        <pt x="433" y="502" on="1"/>
        <pt x="191" y="502" on="1"/>
        <pt x="172" y="378" on="1"/>
        <pt x="414" y="378" on="1"/>
        <pt x="402" y="306" on="1"/>
        <pt x="161" y="306" on="1"/>
        <pt x="125" y="78" on="1"/>
      </contour>
    </TTGlyph>
    <TTGlyph name="F" xMin="37" yMin="0" xMax="444" yMax="574">
      <contour>
        <pt x="113" y="0" on="1"/>
        <pt x="37" y="0" on="1"/>
        <pt x="127" y="573" on="1"/>
        <pt x="444" y="574" on="1"/>
        <pt x="433" y="502" on="1"/>
        <pt x="191" y="502" on="1"/>
        <pt x="172" y="378" on="1"/>
        <pt x="414" y="378" on="1"/>
        <pt x="402" y="306" on="1"/>
        <pt x="161" y="306" on="1"/>
      </contour>
    </TTGlyph>
    <TTGlyph name="G" xMin="37" yMin="0" xMax="444" yMax="573">
      <contour>
        <pt x="240" y="379" on="1"/>
        <pt x="414" y="379" on="1"/>
        <pt x="354" y="0" on="1"/>
        <pt x="37" y="0" on="1"/>
        <pt x="127" y="573" on="1"/>
        <pt x="444" y="573" on="1"/>
        <pt x="433" y="498" on="1"/>
        <pt x="196" y="498" on="1"/>
        <pt x="128" y="72" on="1"/>
        <pt x="289" y="72" on="1"/>
        <pt x="326" y="308" on="1"/>
        <pt x="228" y="308" on="1"/>
      </contour>
    </TTGlyph>
    <TTGlyph name="H" xMin="37" yMin="0" xMax="444" yMax="573">
      <contour>
        <pt x="334" y="379" on="1"/>
        <pt x="172" y="379" on="1"/>
        <pt x="203" y="573" on="1"/>
        <pt x="127" y="573" on="1"/>
        <pt x="37" y="0" on="1"/>
        <pt x="113" y="0" on="1"/>
        <pt x="161" y="307" on="1"/>
        <pt x="323" y="307" on="1"/>
        <pt x="274" y="0" on="1"/>
        <pt x="354" y="0" on="1"/>
        <pt x="444" y="573" on="1"/>
        <pt x="365" y="573" on="1"/>
      </contour>
    </TTGlyph>
    <TTGlyph name="I" xMin="12" yMin="0" xMax="313" yMax="573">
      <contour>
        <pt x="158" y="500" on="1"/>
        <pt x="85" y="500" on="1"/>
        <pt x="96" y="573" on="1"/>
        <pt x="313" y="573" on="1"/>
        <pt x="302" y="500" on="1"/>
        <pt x="233" y="500" on="1"/>
        <pt x="166" y="74" on="1"/>
        <pt x="240" y="74" on="1"/>
        <pt x="228" y="0" on="1"/>
        <pt x="12" y="0" on="1"/>
        <pt x="24" y="74" on="1"/>
        <pt x="90" y="74" on="1"/>
      </contour>
    </TTGlyph>
    <TTGlyph name="Iacute" xMin="12" yMin="0" xMax="313" yMax="799">
      <contour>
        <pt x="158" y="500" on="1"/>
        <pt x="85" y="500" on="1"/>
        <pt x="96" y="573" on="1"/>
        <pt x="313" y="573" on="1"/>
        <pt x="302" y="500" on="1"/>
        <pt x="233" y="500" on="1"/>
        <pt x="166" y="74" on="1"/>
        <pt x="240" y="74" on="1"/>
        <pt x="228" y="0" on="1"/>
        <pt x="12" y="0" on="1"/>
        <pt x="24" y="74" on="1"/>
        <pt x="90" y="74" on="1"/>
      </contour>
      <contour>
        <pt x="260" y="799" on="1"/>
        <pt x="34" y="666" on="1"/>
        <pt x="80" y="604" on="1"/>
        <pt x="306" y="737" on="1"/>
      </contour>
    </TTGlyph>
    <TTGlyph name="Icircumflex" xMin="12" yMin="0" xMax="313" yMax="803">
      <contour>
        <pt x="158" y="500" on="1"/>
        <pt x="85" y="500" on="1"/>
        <pt x="96" y="573" on="1"/>
        <pt x="313" y="573" on="1"/>
        <pt x="302" y="500" on="1"/>
        <pt x="233" y="500" on="1"/>
        <pt x="166" y="74" on="1"/>
        <pt x="240" y="74" on="1"/>
        <pt x="228" y="0" on="1"/>
        <pt x="12" y="0" on="1"/>
        <pt x="24" y="74" on="1"/>
        <pt x="90" y="74" on="1"/>
      </contour>
      <contour>
        <pt x="188" y="803" on="1"/>
        <pt x="305" y="664" on="1"/>
        <pt x="242" y="610" on="1"/>
        <pt x="172" y="702" on="1"/>
        <pt x="74" y="610" on="1"/>
        <pt x="27" y="664" on="1"/>
      </contour>
    </TTGlyph>
    <TTGlyph name="Idieresis" xMin="12" yMin="0" xMax="325" yMax="758">
      <contour>
        <pt x="65" y="758" on="1"/>
        <pt x="43" y="625" on="1"/>
        <pt x="119" y="625" on="1"/>
        <pt x="140" y="758" on="1"/>
      </contour>
      <contour>
        <pt x="249" y="758" on="1"/>
        <pt x="227" y="625" on="1"/>
        <pt x="303" y="625" on="1"/>
        <pt x="325" y="758" on="1"/>
      </contour>
      <contour>
        <pt x="158" y="500" on="1"/>
        <pt x="85" y="500" on="1"/>
        <pt x="96" y="573" on="1"/>
        <pt x="313" y="573" on="1"/>
        <pt x="302" y="500" on="1"/>
        <pt x="233" y="500" on="1"/>
        <pt x="166" y="74" on="1"/>
        <pt x="240" y="74" on="1"/>
        <pt x="228" y="0" on="1"/>
        <pt x="12" y="0" on="1"/>
        <pt x="24" y="74" on="1"/>
        <pt x="90" y="74" on="1"/>
      </contour>
    </TTGlyph>
    <TTGlyph name="Igrave" xMin="12" yMin="0" xMax="313" yMax="799">
      <contour>
        <pt x="111" y="799" on="1"/>
        <pt x="294" y="666" on="1"/>
        <pt x="229" y="604" on="1"/>
        <pt x="46" y="737" on="1"/>
      </contour>
      <contour>
        <pt x="158" y="500" on="1"/>
        <pt x="85" y="500" on="1"/>
        <pt x="96" y="573" on="1"/>
        <pt x="313" y="573" on="1"/>
        <pt x="302" y="500" on="1"/>
        <pt x="233" y="500" on="1"/>
        <pt x="166" y="74" on="1"/>
        <pt x="240" y="74" on="1"/>
        <pt x="228" y="0" on="1"/>
        <pt x="12" y="0" on="1"/>
        <pt x="24" y="74" on="1"/>
        <pt x="90" y="74" on="1"/>
      </contour>
    </TTGlyph>
    <TTGlyph name="J" xMin="-57" yMin="-154" xMax="237" yMax="573">
      <contour>
        <pt x="160" y="573" on="1"/>
        <pt x="237" y="573" on="1"/>
        <pt x="122" y="-154" on="1"/>
        <pt x="-57" y="-154" on="1"/>
        <pt x="-46" y="-80" on="1"/>
        <pt x="56" y="-80" on="1"/>
      </contour>
    </TTGlyph>
    <TTGlyph name="K" xMin="37" yMin="0" xMax="465" yMax="573">
      <contour>
        <pt x="385" y="0" on="1"/>
        <pt x="232" y="302" on="1"/>
        <pt x="465" y="573" on="1"/>
        <pt x="356" y="573" on="1"/>
        <pt x="164" y="328" on="1"/>
        <pt x="203" y="573" on="1"/>
        <pt x="127" y="573" on="1"/>
        <pt x="37" y="0" on="1"/>
        <pt x="113" y="0" on="1"/>
        <pt x="153" y="256" on="1"/>
        <pt x="168" y="256" on="1"/>
        <pt x="267" y="0" on="1"/>
      </contour>
    </TTGlyph>
    <TTGlyph name="L" xMin="37" yMin="0" xMax="367" yMax="574">
      <contour>
        <pt x="125" y="78" on="1"/>
        <pt x="367" y="78" on="1"/>
        <pt x="354" y="0" on="1"/>
        <pt x="37" y="0" on="1"/>
        <pt x="127" y="573" on="1"/>
        <pt x="203" y="574" on="1"/>
      </contour>
    </TTGlyph>
    <TTGlyph name="M" xMin="37" yMin="0" xMax="680" yMax="573">
      <contour>
        <pt x="354" y="0" on="1"/>
        <pt x="272" y="0" on="1"/>
        <pt x="351" y="502" on="1"/>
        <pt x="191" y="502" on="1"/>
        <pt x="113" y="0" on="1"/>
        <pt x="37" y="0" on="1"/>
        <pt x="127" y="573" on="1"/>
        <pt x="680" y="573" on="1"/>
        <pt x="590" y="0" on="1"/>
        <pt x="510" y="0" on="1"/>
        <pt x="589" y="502" on="1"/>
        <pt x="433" y="502" on="1"/>
      </contour>
    </TTGlyph>
    <TTGlyph name="N" xMin="37" yMin="0" xMax="444" yMax="574">
      <contour>
        <pt x="200" y="574" on="1"/>
        <pt x="127" y="573" on="1"/>
        <pt x="37" y="0" on="1"/>
        <pt x="113" y="0" on="1"/>
        <pt x="169" y="358" on="1"/>
        <pt x="294" y="0" on="1"/>
        <pt x="354" y="0" on="1"/>
        <pt x="444" y="573" on="1"/>
        <pt x="365" y="573" on="1"/>
        <pt x="314" y="256" on="1"/>
      </contour>
    </TTGlyph>
    <TTGlyph name="Ntilde" xMin="37" yMin="0" xMax="479" yMax="785">
      <contour>
        <pt x="186" y="725" on="1"/>
        <pt x="266" y="725" on="1"/>
        <pt x="253" y="638" on="1"/>
        <pt x="456" y="638" on="1"/>
        <pt x="479" y="785" on="1"/>
        <pt x="417" y="785" on="1"/>
        <pt x="403" y="702" on="1"/>
        <pt x="328" y="702" on="1"/>
        <pt x="341" y="785" on="1"/>
        <pt x="136" y="785" on="1"/>
        <pt x="113" y="638" on="1"/>
        <pt x="172" y="638" on="1"/>
      </contour>
      <contour>
        <pt x="200" y="574" on="1"/>
        <pt x="127" y="573" on="1"/>
        <pt x="37" y="0" on="1"/>
        <pt x="113" y="0" on="1"/>
        <pt x="169" y="358" on="1"/>
        <pt x="294" y="0" on="1"/>
        <pt x="354" y="0" on="1"/>
        <pt x="444" y="573" on="1"/>
        <pt x="365" y="573" on="1"/>
        <pt x="314" y="256" on="1"/>
      </contour>
    </TTGlyph>
    <TTGlyph name="O" xMin="37" yMin="0" xMax="444" yMax="573">
      <contour>
        <pt x="125" y="78" on="1"/>
        <pt x="287" y="78" on="1"/>
        <pt x="353" y="501" on="1"/>
        <pt x="191" y="501" on="1"/>
      </contour>
      <contour>
        <pt x="37" y="0" on="1"/>
        <pt x="127" y="573" on="1"/>
        <pt x="444" y="573" on="1"/>
        <pt x="354" y="0" on="1"/>
      </contour>
    </TTGlyph>
    <TTGlyph name="OE" xMin="37" yMin="0" xMax="685" yMax="574">
      <contour>
        <pt x="125" y="78" on="1"/>
        <pt x="287" y="78" on="1"/>
        <pt x="353" y="501" on="1"/>
        <pt x="191" y="501" on="1"/>
      </contour>
      <contour>
        <pt x="607" y="78" on="1"/>
        <pt x="595" y="0" on="1"/>
        <pt x="37" y="0" on="1"/>
        <pt x="127" y="573" on="1"/>
        <pt x="308" y="573" on="0"/>
        <pt x="685" y="574" on="1"/>
        <pt x="674" y="502" on="1"/>
        <pt x="433" y="502" on="1"/>
        <pt x="414" y="378" on="1"/>
        <pt x="654" y="378" on="1"/>
        <pt x="643" y="306" on="1"/>
        <pt x="402" y="306" on="1"/>
        <pt x="367" y="78" on="1"/>
      </contour>
    </TTGlyph>
    <TTGlyph name="Oacute" xMin="37" yMin="0" xMax="444" yMax="799">
      <contour>
        <pt x="125" y="78" on="1"/>
        <pt x="287" y="78" on="1"/>
        <pt x="353" y="501" on="1"/>
        <pt x="191" y="501" on="1"/>
      </contour>
      <contour>
        <pt x="37" y="0" on="1"/>
        <pt x="127" y="573" on="1"/>
        <pt x="444" y="573" on="1"/>
        <pt x="354" y="0" on="1"/>
      </contour>
      <contour>
        <pt x="322" y="799" on="1"/>
        <pt x="95" y="666" on="1"/>
        <pt x="141" y="604" on="1"/>
        <pt x="368" y="737" on="1"/>
      </contour>
    </TTGlyph>
    <TTGlyph name="Ocircumflex" xMin="37" yMin="0" xMax="444" yMax="803">
      <contour>
        <pt x="125" y="78" on="1"/>
        <pt x="287" y="78" on="1"/>
        <pt x="353" y="501" on="1"/>
        <pt x="191" y="501" on="1"/>
      </contour>
      <contour>
        <pt x="37" y="0" on="1"/>
        <pt x="127" y="573" on="1"/>
        <pt x="444" y="573" on="1"/>
        <pt x="354" y="0" on="1"/>
      </contour>
      <contour>
        <pt x="260" y="803" on="1"/>
        <pt x="377" y="664" on="1"/>
        <pt x="313" y="610" on="1"/>
        <pt x="244" y="702" on="1"/>
        <pt x="145" y="610" on="1"/>
        <pt x="98" y="664" on="1"/>
      </contour>
    </TTGlyph>
    <TTGlyph name="Odieresis" xMin="37" yMin="0" xMax="444" yMax="573">
      <contour>
        <pt x="125" y="78" on="1"/>
        <pt x="287" y="78" on="1"/>
        <pt x="353" y="501" on="1"/>
        <pt x="191" y="501" on="1"/>
      </contour>
      <contour>
        <pt x="37" y="0" on="1"/>
        <pt x="127" y="573" on="1"/>
        <pt x="444" y="573" on="1"/>
        <pt x="354" y="0" on="1"/>
      </contour>
    </TTGlyph>
    <TTGlyph name="Ograve" xMin="37" yMin="0" xMax="444" yMax="788">
      <contour>
        <pt x="170" y="788" on="1"/>
        <pt x="354" y="655" on="1"/>
        <pt x="289" y="594" on="1"/>
        <pt x="105" y="727" on="1"/>
      </contour>
      <contour>
        <pt x="125" y="78" on="1"/>
        <pt x="287" y="78" on="1"/>
        <pt x="353" y="501" on="1"/>
        <pt x="191" y="501" on="1"/>
      </contour>
      <contour>
        <pt x="37" y="0" on="1"/>
        <pt x="127" y="573" on="1"/>
        <pt x="444" y="573" on="1"/>
        <pt x="354" y="0" on="1"/>
      </contour>
    </TTGlyph>
    <TTGlyph name="Oslash" xMin="35" yMin="-51" xMax="443" yMax="645">
      <contour>
        <pt x="291" y="501" on="1"/>
        <pt x="190" y="501" on="1"/>
        <pt x="129" y="119" on="1"/>
      </contour>
      <contour>
        <pt x="187" y="78" on="1"/>
        <pt x="285" y="78" on="1"/>
        <pt x="343" y="444" on="1"/>
      </contour>
      <contour>
        <pt x="35" y="0" on="1"/>
        <pt x="126" y="573" on="1"/>
        <pt x="322" y="573" on="1"/>
        <pt x="352" y="645" on="1"/>
        <pt x="428" y="645" on="1"/>
        <pt x="397" y="573" on="1"/>
        <pt x="443" y="573" on="1"/>
        <pt x="352" y="0" on="1"/>
        <pt x="155" y="0" on="1"/>
        <pt x="133" y="-51" on="1"/>
        <pt x="57" y="-51" on="1"/>
        <pt x="79" y="0" on="1"/>
      </contour>
    </TTGlyph>
    <TTGlyph name="Otilde" xMin="37" yMin="0" xMax="479" yMax="785">
      <contour>
        <pt x="186" y="725" on="1"/>
        <pt x="266" y="725" on="1"/>
        <pt x="253" y="638" on="1"/>
        <pt x="456" y="638" on="1"/>
        <pt x="479" y="785" on="1"/>
        <pt x="417" y="785" on="1"/>
        <pt x="403" y="702" on="1"/>
        <pt x="328" y="702" on="1"/>
        <pt x="341" y="785" on="1"/>
        <pt x="136" y="785" on="1"/>
        <pt x="113" y="638" on="1"/>
        <pt x="172" y="638" on="1"/>
      </contour>
      <contour>
        <pt x="125" y="78" on="1"/>
        <pt x="287" y="78" on="1"/>
        <pt x="353" y="501" on="1"/>
        <pt x="191" y="501" on="1"/>
      </contour>
      <contour>
        <pt x="37" y="0" on="1"/>
        <pt x="127" y="573" on="1"/>
        <pt x="444" y="573" on="1"/>
        <pt x="354" y="0" on="1"/>
      </contour>
    </TTGlyph>
    <TTGlyph name="P" xMin="37" yMin="0" xMax="424" yMax="573">
      <contour>
        <pt x="374" y="256" on="1"/>
        <pt x="153" y="256" on="1"/>
        <pt x="114" y="0" on="1"/>
        <pt x="37" y="0" on="1"/>
        <pt x="127" y="573" on="1"/>
        <pt x="424" y="573" on="1"/>
      </contour>
      <contour>
        <pt x="305" y="328" on="1"/>
        <pt x="333" y="502" on="1"/>
        <pt x="191" y="502" on="1"/>
        <pt x="164" y="328" on="1"/>
      </contour>
    </TTGlyph>
    <TTGlyph name="Q" xMin="49" yMin="-154" xMax="457" yMax="573">
      <contour>
        <pt x="264" y="-154" on="1"/>
        <pt x="188" y="-154" on="1"/>
        <pt x="213" y="0" on="1"/>
        <pt x="49" y="0" on="1"/>
        <pt x="139" y="573" on="1"/>
        <pt x="457" y="573" on="1"/>
        <pt x="367" y="0" on="1"/>
        <pt x="289" y="0" on="1"/>
      </contour>
      <contour>
        <pt x="299" y="78" on="1"/>
        <pt x="366" y="502" on="1"/>
        <pt x="204" y="501" on="1"/>
        <pt x="137" y="78" on="1"/>
      </contour>
    </TTGlyph>
    <TTGlyph name="R" xMin="37" yMin="0" xMax="424" yMax="573">
      <contour>
        <pt x="385" y="0" on="1"/>
        <pt x="285" y="0" on="1"/>
        <pt x="185" y="256" on="1"/>
        <pt x="153" y="256" on="1"/>
        <pt x="114" y="0" on="1"/>
        <pt x="37" y="0" on="1"/>
        <pt x="127" y="573" on="1"/>
        <pt x="424" y="573" on="1"/>
        <pt x="374" y="256" on="1"/>
        <pt x="286" y="256" on="1"/>
      </contour>
      <contour>
        <pt x="305" y="328" on="1"/>
        <pt x="333" y="502" on="1"/>
        <pt x="191" y="502" on="1"/>
        <pt x="164" y="328" on="1"/>
      </contour>
    </TTGlyph>
    <TTGlyph name="S" xMin="37" yMin="0" xMax="444" yMax="573">
      <contour>
        <pt x="124" y="75" on="1"/>
        <pt x="138" y="164" on="1"/>
        <pt x="62" y="164" on="1"/>
        <pt x="37" y="0" on="1"/>
        <pt x="352" y="1" on="1"/>
        <pt x="390" y="243" on="1"/>
        <pt x="176" y="379" on="1"/>
        <pt x="196" y="499" on="1"/>
        <pt x="357" y="499" on="1"/>
        <pt x="343" y="410" on="1"/>
        <pt x="419" y="410" on="1"/>
        <pt x="444" y="573" on="1"/>
        <pt x="127" y="573" on="1"/>
        <pt x="85" y="307" on="1"/>
        <pt x="301" y="170" on="1"/>
        <pt x="286" y="75" on="1"/>
      </contour>
    </TTGlyph>
    <TTGlyph name="Scaron" xMin="37" yMin="0" xMax="444" yMax="803">
      <contour>
        <pt x="124" y="75" on="1"/>
        <pt x="138" y="164" on="1"/>
        <pt x="62" y="164" on="1"/>
        <pt x="37" y="0" on="1"/>
        <pt x="352" y="1" on="1"/>
        <pt x="390" y="243" on="1"/>
        <pt x="176" y="379" on="1"/>
        <pt x="196" y="499" on="1"/>
        <pt x="357" y="499" on="1"/>
        <pt x="343" y="410" on="1"/>
        <pt x="419" y="410" on="1"/>
        <pt x="444" y="573" on="1"/>
        <pt x="127" y="573" on="1"/>
        <pt x="85" y="307" on="1"/>
        <pt x="301" y="170" on="1"/>
        <pt x="286" y="75" on="1"/>
      </contour>
      <contour>
        <pt x="229" y="610" on="1"/>
        <pt x="113" y="750" on="1"/>
        <pt x="176" y="803" on="1"/>
        <pt x="246" y="711" on="1"/>
        <pt x="344" y="803" on="1"/>
        <pt x="391" y="750" on="1"/>
      </contour>
    </TTGlyph>
    <TTGlyph name="T" xMin="115" yMin="0" xMax="444" yMax="573">
      <contour>
        <pt x="236" y="0" on="1"/>
        <pt x="160" y="0" on="1"/>
        <pt x="239" y="500" on="1"/>
        <pt x="115" y="500" on="1"/>
        <pt x="126" y="573" on="1"/>
        <pt x="444" y="573" on="1"/>
        <pt x="433" y="500" on="1"/>
        <pt x="314" y="500" on="1"/>
      </contour>
    </TTGlyph>
    <TTGlyph name="U" xMin="37" yMin="0" xMax="444" yMax="573">
      <contour>
        <pt x="444" y="573" on="1"/>
        <pt x="354" y="0" on="1"/>
        <pt x="37" y="0" on="1"/>
        <pt x="127" y="573" on="1"/>
        <pt x="203" y="573" on="1"/>
        <pt x="124" y="72" on="1"/>
        <pt x="286" y="72" on="1"/>
        <pt x="365" y="573" on="1"/>
      </contour>
    </TTGlyph>
    <TTGlyph name="Uacute" xMin="37" yMin="0" xMax="444" yMax="799">
      <contour>
        <pt x="444" y="573" on="1"/>
        <pt x="354" y="0" on="1"/>
        <pt x="37" y="0" on="1"/>
        <pt x="127" y="573" on="1"/>
        <pt x="203" y="573" on="1"/>
        <pt x="124" y="72" on="1"/>
        <pt x="286" y="72" on="1"/>
        <pt x="365" y="573" on="1"/>
      </contour>
      <contour>
        <pt x="322" y="799" on="1"/>
        <pt x="95" y="666" on="1"/>
        <pt x="141" y="604" on="1"/>
        <pt x="368" y="737" on="1"/>
      </contour>
    </TTGlyph>
    <TTGlyph name="Ucircumflex" xMin="37" yMin="0" xMax="444" yMax="803">
      <contour>
        <pt x="444" y="573" on="1"/>
        <pt x="354" y="0" on="1"/>
        <pt x="37" y="0" on="1"/>
        <pt x="127" y="573" on="1"/>
        <pt x="203" y="573" on="1"/>
        <pt x="124" y="72" on="1"/>
        <pt x="286" y="72" on="1"/>
        <pt x="365" y="573" on="1"/>
      </contour>
      <contour>
        <pt x="260" y="803" on="1"/>
        <pt x="377" y="664" on="1"/>
        <pt x="313" y="610" on="1"/>
        <pt x="244" y="702" on="1"/>
        <pt x="145" y="610" on="1"/>
        <pt x="98" y="664" on="1"/>
      </contour>
    </TTGlyph>
    <TTGlyph name="Udieresis" xMin="37" yMin="0" xMax="444" yMax="573">
      <contour>
        <pt x="444" y="573" on="1"/>
        <pt x="354" y="0" on="1"/>
        <pt x="37" y="0" on="1"/>
        <pt x="127" y="573" on="1"/>
        <pt x="203" y="573" on="1"/>
        <pt x="124" y="72" on="1"/>
        <pt x="286" y="72" on="1"/>
        <pt x="365" y="573" on="1"/>
      </contour>
    </TTGlyph>
    <TTGlyph name="Ugrave" xMin="37" yMin="0" xMax="444" yMax="799">
      <contour>
        <pt x="172" y="799" on="1"/>
        <pt x="355" y="666" on="1"/>
        <pt x="291" y="604" on="1"/>
        <pt x="108" y="737" on="1"/>
      </contour>
      <contour>
        <pt x="444" y="573" on="1"/>
        <pt x="354" y="0" on="1"/>
        <pt x="37" y="0" on="1"/>
        <pt x="127" y="573" on="1"/>
        <pt x="203" y="573" on="1"/>
        <pt x="124" y="72" on="1"/>
        <pt x="286" y="72" on="1"/>
        <pt x="365" y="573" on="1"/>
      </contour>
    </TTGlyph>
    <TTGlyph name="V" xMin="86" yMin="0" xMax="455" yMax="573">
      <contour>
        <pt x="455" y="573" on="1"/>
        <pt x="262" y="0" on="1"/>
        <pt x="98" y="0" on="1"/>
        <pt x="86" y="573" on="1"/>
        <pt x="182" y="573" on="1"/>
        <pt x="176" y="82" on="1"/>
        <pt x="205" y="82" on="1"/>
        <pt x="354" y="573" on="1"/>
      </contour>
    </TTGlyph>
    <TTGlyph name="W" xMin="37" yMin="0" xMax="680" yMax="573">
      <contour>
        <pt x="362" y="573" on="1"/>
        <pt x="444" y="573" on="1"/>
        <pt x="366" y="72" on="1"/>
        <pt x="525" y="72" on="1"/>
        <pt x="604" y="573" on="1"/>
        <pt x="680" y="573" on="1"/>
        <pt x="590" y="0" on="1"/>
        <pt x="37" y="0" on="1"/>
        <pt x="127" y="573" on="1"/>
        <pt x="207" y="573" on="1"/>
        <pt x="128" y="72" on="1"/>
        <pt x="284" y="72" on="1"/>
      </contour>
    </TTGlyph>
    <TTGlyph name="X" xMin="-14" yMin="0" xMax="485" yMax="573">
      <contour>
        <pt x="406" y="0" on="1"/>
        <pt x="295" y="0" on="1"/>
        <pt x="243" y="256" on="1"/>
        <pt x="224" y="256" on="1"/>
        <pt x="92" y="0" on="1"/>
        <pt x="-14" y="0" on="1"/>
        <pt x="153" y="307" on="1"/>
        <pt x="86" y="573" on="1"/>
        <pt x="193" y="573" on="1"/>
        <pt x="236" y="328" on="1"/>
        <pt x="254" y="328" on="1"/>
        <pt x="375" y="573" on="1"/>
        <pt x="485" y="573" on="1"/>
        <pt x="335" y="307" on="1"/>
      </contour>
    </TTGlyph>
    <TTGlyph name="Y" xMin="37" yMin="0" xMax="444" yMax="573">
      <contour>
        <pt x="444" y="573" on="1"/>
        <pt x="354" y="0" on="1"/>
        <pt x="37" y="0" on="1"/>
        <pt x="48" y="72" on="1"/>
        <pt x="286" y="72" on="1"/>
        <pt x="303" y="184" on="1"/>
        <pt x="68" y="184" on="1"/>
        <pt x="129" y="573" on="1"/>
        <pt x="203" y="573" on="1"/>
        <pt x="154" y="258" on="1"/>
        <pt x="315" y="258" on="1"/>
        <pt x="365" y="573" on="1"/>
      </contour>
    </TTGlyph>
    <TTGlyph name="Yacute" xMin="37" yMin="0" xMax="444" yMax="799">
      <contour>
        <pt x="444" y="573" on="1"/>
        <pt x="354" y="0" on="1"/>
        <pt x="37" y="0" on="1"/>
        <pt x="48" y="72" on="1"/>
        <pt x="286" y="72" on="1"/>
        <pt x="303" y="184" on="1"/>
        <pt x="68" y="184" on="1"/>
        <pt x="129" y="573" on="1"/>
        <pt x="203" y="573" on="1"/>
        <pt x="154" y="258" on="1"/>
        <pt x="315" y="258" on="1"/>
        <pt x="365" y="573" on="1"/>
      </contour>
      <contour>
        <pt x="322" y="799" on="1"/>
        <pt x="95" y="666" on="1"/>
        <pt x="141" y="604" on="1"/>
        <pt x="368" y="737" on="1"/>
      </contour>
    </TTGlyph>
    <TTGlyph name="Ydieresis" xMin="37" yMin="0" xMax="444" yMax="748">
      <contour>
        <pt x="444" y="573" on="1"/>
        <pt x="354" y="0" on="1"/>
        <pt x="37" y="0" on="1"/>
        <pt x="48" y="72" on="1"/>
        <pt x="286" y="72" on="1"/>
        <pt x="303" y="184" on="1"/>
        <pt x="68" y="184" on="1"/>
        <pt x="129" y="573" on="1"/>
        <pt x="203" y="573" on="1"/>
        <pt x="154" y="258" on="1"/>
        <pt x="315" y="258" on="1"/>
        <pt x="365" y="573" on="1"/>
      </contour>
      <contour>
        <pt x="103" y="748" on="1"/>
        <pt x="83" y="614" on="1"/>
        <pt x="159" y="614" on="1"/>
        <pt x="179" y="748" on="1"/>
      </contour>
      <contour>
        <pt x="288" y="748" on="1"/>
        <pt x="267" y="614" on="1"/>
        <pt x="343" y="614" on="1"/>
        <pt x="364" y="748" on="1"/>
      </contour>
    </TTGlyph>
    <TTGlyph name="Z" xMin="37" yMin="0" xMax="444" yMax="573">
      <contour>
        <pt x="148" y="72" on="1"/>
        <pt x="357" y="72" on="1"/>
        <pt x="346" y="0" on="1"/>
        <pt x="37" y="0" on="1"/>
        <pt x="48" y="72" on="1"/>
        <pt x="353" y="499" on="1"/>
        <pt x="116" y="499" on="1"/>
        <pt x="127" y="573" on="1"/>
        <pt x="444" y="573" on="1"/>
        <pt x="432" y="496" on="1"/>
      </contour>
    </TTGlyph>
    <TTGlyph name="Zcaron" xMin="37" yMin="0" xMax="444" yMax="793">
      <contour>
        <pt x="148" y="72" on="1"/>
        <pt x="357" y="72" on="1"/>
        <pt x="346" y="0" on="1"/>
        <pt x="37" y="0" on="1"/>
        <pt x="48" y="72" on="1"/>
        <pt x="353" y="499" on="1"/>
        <pt x="116" y="499" on="1"/>
        <pt x="127" y="573" on="1"/>
        <pt x="444" y="573" on="1"/>
        <pt x="432" y="496" on="1"/>
      </contour>
      <contour>
        <pt x="228" y="600" on="1"/>
        <pt x="111" y="739" on="1"/>
        <pt x="174" y="793" on="1"/>
        <pt x="244" y="700" on="1"/>
        <pt x="342" y="793" on="1"/>
        <pt x="389" y="739" on="1"/>
      </contour>
    </TTGlyph>
    <TTGlyph name="a" xMin="48" yMin="0" xMax="435" yMax="451">
      <contour>
        <pt x="326" y="266" on="1"/>
        <pt x="344" y="379" on="1"/>
        <pt x="106" y="379" on="1"/>
        <pt x="118" y="451" on="1"/>
        <pt x="435" y="451" on="1"/>
        <pt x="364" y="0" on="1"/>
        <pt x="48" y="0" on="1"/>
        <pt x="90" y="266" on="1"/>
      </contour>
      <contour>
        <pt x="314" y="193" on="1"/>
        <pt x="153" y="193" on="1"/>
        <pt x="134" y="74" on="1"/>
        <pt x="296" y="74" on="1"/>
      </contour>
    </TTGlyph>
    <TTGlyph name="aacute" xMin="48" yMin="0" xMax="435" yMax="676">
      <contour>
        <pt x="326" y="266" on="1"/>
        <pt x="344" y="379" on="1"/>
        <pt x="106" y="379" on="1"/>
        <pt x="118" y="451" on="1"/>
        <pt x="435" y="451" on="1"/>
        <pt x="364" y="0" on="1"/>
        <pt x="48" y="0" on="1"/>
        <pt x="90" y="266" on="1"/>
      </contour>
      <contour>
        <pt x="314" y="193" on="1"/>
        <pt x="153" y="193" on="1"/>
        <pt x="134" y="74" on="1"/>
        <pt x="296" y="74" on="1"/>
      </contour>
      <contour>
        <pt x="302" y="676" on="1"/>
        <pt x="76" y="543" on="1"/>
        <pt x="122" y="481" on="1"/>
        <pt x="348" y="614" on="1"/>
      </contour>
    </TTGlyph>
    <TTGlyph name="acircumflex" xMin="48" yMin="0" xMax="435" yMax="680">
      <contour>
        <pt x="326" y="266" on="1"/>
        <pt x="344" y="379" on="1"/>
        <pt x="106" y="379" on="1"/>
        <pt x="118" y="451" on="1"/>
        <pt x="435" y="451" on="1"/>
        <pt x="364" y="0" on="1"/>
        <pt x="48" y="0" on="1"/>
        <pt x="90" y="266" on="1"/>
      </contour>
      <contour>
        <pt x="314" y="193" on="1"/>
        <pt x="153" y="193" on="1"/>
        <pt x="134" y="74" on="1"/>
        <pt x="296" y="74" on="1"/>
      </contour>
      <contour>
        <pt x="241" y="680" on="1"/>
        <pt x="357" y="541" on="1"/>
        <pt x="294" y="487" on="1"/>
        <pt x="224" y="580" on="1"/>
        <pt x="126" y="487" on="1"/>
        <pt x="79" y="541" on="1"/>
      </contour>
    </TTGlyph>
    <TTGlyph name="acute" xMin="76" yMin="481" xMax="348" yMax="676">
      <contour>
        <pt x="302" y="676" on="1"/>
        <pt x="76" y="543" on="1"/>
        <pt x="122" y="481" on="1"/>
        <pt x="348" y="614" on="1"/>
      </contour>
    </TTGlyph>
    <TTGlyph name="adieresis" xMin="48" yMin="0" xMax="435" yMax="676">
      <contour>
        <pt x="326" y="266" on="1"/>
        <pt x="344" y="379" on="1"/>
        <pt x="106" y="379" on="1"/>
        <pt x="118" y="451" on="1"/>
        <pt x="435" y="451" on="1"/>
        <pt x="364" y="0" on="1"/>
        <pt x="48" y="0" on="1"/>
        <pt x="90" y="266" on="1"/>
      </contour>
      <contour>
        <pt x="314" y="193" on="1"/>
        <pt x="153" y="193" on="1"/>
        <pt x="134" y="74" on="1"/>
        <pt x="296" y="74" on="1"/>
      </contour>
      <contour>
        <pt x="92" y="676" on="1"/>
        <pt x="72" y="543" on="1"/>
        <pt x="147" y="543" on="1"/>
        <pt x="168" y="676" on="1"/>
      </contour>
      <contour>
        <pt x="276" y="676" on="1"/>
        <pt x="256" y="543" on="1"/>
        <pt x="332" y="543" on="1"/>
        <pt x="352" y="676" on="1"/>
      </contour>
    </TTGlyph>
    <TTGlyph name="ae" xMin="48" yMin="0" xMax="679" yMax="451">
      <contour>
        <pt x="94" y="287" on="1"/>
        <pt x="330" y="287" on="1"/>
        <pt x="344" y="379" on="1"/>
        <pt x="106" y="379" on="1"/>
        <pt x="118" y="451" on="1"/>
        <pt x="679" y="451" on="1"/>
        <pt x="633" y="164" on="1"/>
        <pt x="397" y="164" on="1"/>
        <pt x="383" y="72" on="1"/>
        <pt x="621" y="72" on="1"/>
        <pt x="609" y="0" on="1"/>
        <pt x="48" y="0" on="1"/>
      </contour>
      <contour>
        <pt x="571" y="238" on="1"/>
        <pt x="593" y="377" on="1"/>
        <pt x="431" y="377" on="1"/>
        <pt x="410" y="238" on="1"/>
      </contour>
      <contour>
        <pt x="296" y="74" on="1"/>
        <pt x="317" y="213" on="1"/>
        <pt x="156" y="213" on="1"/>
        <pt x="134" y="74" on="1"/>
      </contour>
    </TTGlyph>
    <TTGlyph name="agrave" xMin="48" yMin="0" xMax="435" yMax="676">
      <contour>
        <pt x="326" y="266" on="1"/>
        <pt x="344" y="379" on="1"/>
        <pt x="106" y="379" on="1"/>
        <pt x="118" y="451" on="1"/>
        <pt x="435" y="451" on="1"/>
        <pt x="364" y="0" on="1"/>
        <pt x="48" y="0" on="1"/>
        <pt x="90" y="266" on="1"/>
      </contour>
      <contour>
        <pt x="314" y="193" on="1"/>
        <pt x="153" y="193" on="1"/>
        <pt x="134" y="74" on="1"/>
        <pt x="296" y="74" on="1"/>
      </contour>
      <contour>
        <pt x="153" y="676" on="1"/>
        <pt x="336" y="543" on="1"/>
        <pt x="271" y="481" on="1"/>
        <pt x="88" y="614" on="1"/>
      </contour>
    </TTGlyph>
    <TTGlyph name="ampersand" xMin="37" yMin="0" xMax="436" yMax="573">
      <contour>
        <pt x="398" y="410" on="1"/>
        <pt x="385" y="328" on="1"/>
        <pt x="436" y="328" on="1"/>
        <pt x="425" y="257" on="1"/>
        <pt x="374" y="257" on="1"/>
        <pt x="334" y="0" on="1"/>
        <pt x="37" y="0" on="1"/>
        <pt x="88" y="328" on="1"/>
        <pt x="160" y="328" on="1"/>
        <pt x="199" y="573" on="1"/>
        <pt x="369" y="573" on="1"/>
        <pt x="357" y="502" on="1"/>
        <pt x="267" y="502" on="1"/>
        <pt x="240" y="328" on="1"/>
        <pt x="309" y="328" on="1"/>
        <pt x="323" y="410" on="1"/>
      </contour>
      <contour>
        <pt x="270" y="77" on="1"/>
        <pt x="298" y="256" on="1"/>
        <pt x="157" y="256" on="1"/>
        <pt x="129" y="77" on="1"/>
      </contour>
    </TTGlyph>
    <TTGlyph name="aring" xMin="48" yMin="0" xMax="435" yMax="729">
      <contour>
        <pt x="326" y="266" on="1"/>
        <pt x="344" y="379" on="1"/>
        <pt x="106" y="379" on="1"/>
        <pt x="118" y="451" on="1"/>
        <pt x="435" y="451" on="1"/>
        <pt x="364" y="0" on="1"/>
        <pt x="48" y="0" on="1"/>
        <pt x="90" y="266" on="1"/>
      </contour>
      <contour>
        <pt x="314" y="193" on="1"/>
        <pt x="153" y="193" on="1"/>
        <pt x="134" y="74" on="1"/>
        <pt x="296" y="74" on="1"/>
      </contour>
      <contour>
        <pt x="68" y="520" on="1"/>
        <pt x="100" y="729" on="1"/>
        <pt x="291" y="729" on="1"/>
        <pt x="258" y="520" on="1"/>
      </contour>
      <contour>
        <pt x="228" y="685" on="1"/>
        <pt x="152" y="684" on="1"/>
        <pt x="133" y="563" on="1"/>
        <pt x="210" y="563" on="1"/>
      </contour>
    </TTGlyph>
    <TTGlyph name="asciicircum" xMin="79" yMin="487" xMax="357" yMax="680">
      <contour>
        <pt x="241" y="680" on="1"/>
        <pt x="357" y="541" on="1"/>
        <pt x="294" y="487" on="1"/>
        <pt x="224" y="580" on="1"/>
        <pt x="126" y="487" on="1"/>
        <pt x="79" y="541" on="1"/>
      </contour>
    </TTGlyph>
    <TTGlyph name="asciitilde" xMin="27" yMin="210" xMax="484" yMax="394">
      <contour>
        <pt x="119" y="318" on="1"/>
        <pt x="219" y="318" on="1"/>
        <pt x="202" y="210" on="1"/>
        <pt x="456" y="210" on="1"/>
        <pt x="484" y="394" on="1"/>
        <pt x="407" y="394" on="1"/>
        <pt x="390" y="291" on="1"/>
        <pt x="295" y="291" on="1"/>
        <pt x="311" y="394" on="1"/>
        <pt x="55" y="394" on="1"/>
        <pt x="27" y="210" on="1"/>
        <pt x="101" y="210" on="1"/>
      </contour>
    </TTGlyph>
    <TTGlyph name="asterisk" xMin="-2" yMin="256" xMax="319" yMax="614">
      <contour>
        <pt x="89" y="256" on="1"/>
        <pt x="108" y="369" on="1"/>
        <pt x="28" y="317" on="1"/>
        <pt x="-2" y="389" on="1"/>
        <pt x="86" y="427" on="1"/>
        <pt x="12" y="481" on="1"/>
        <pt x="63" y="543" on="1"/>
        <pt x="128" y="502" on="1"/>
        <pt x="146" y="614" on="1"/>
        <pt x="218" y="614" on="1"/>
        <pt x="200" y="502" on="1"/>
        <pt x="279" y="543" on="1"/>
        <pt x="319" y="478" on="1"/>
        <pt x="229" y="427" on="1"/>
        <pt x="305" y="389" on="1"/>
        <pt x="243" y="317" on="1"/>
        <pt x="179" y="369" on="1"/>
        <pt x="161" y="256" on="1"/>
      </contour>
    </TTGlyph>
    <TTGlyph name="at" xMin="34" yMin="-154" xMax="550" yMax="451">
      <contour>
        <pt x="454" y="-154" on="1"/>
        <pt x="34" y="-154" on="1"/>
        <pt x="130" y="451" on="1"/>
        <pt x="550" y="451" on="1"/>
        <pt x="478" y="0" on="1"/>
        <pt x="224" y="0" on="1"/>
        <pt x="266" y="266" on="1"/>
        <pt x="440" y="266" on="1"/>
        <pt x="459" y="379" on="1"/>
        <pt x="200" y="379" on="1"/>
        <pt x="128" y="-74" on="1"/>
        <pt x="467" y="-74" on="1"/>
      </contour>
      <contour>
        <pt x="410" y="74" on="1"/>
        <pt x="429" y="193" on="1"/>
        <pt x="329" y="193" on="1"/>
        <pt x="309" y="74" on="1"/>
      </contour>
    </TTGlyph>
    <TTGlyph name="atilde" xMin="48" yMin="0" xMax="472" yMax="693">
      <contour>
        <pt x="179" y="633" on="1"/>
        <pt x="259" y="633" on="1"/>
        <pt x="246" y="546" on="1"/>
        <pt x="449" y="546" on="1"/>
        <pt x="472" y="693" on="1"/>
        <pt x="410" y="693" on="1"/>
        <pt x="396" y="610" on="1"/>
        <pt x="321" y="610" on="1"/>
        <pt x="334" y="693" on="1"/>
        <pt x="129" y="693" on="1"/>
        <pt x="105" y="546" on="1"/>
        <pt x="165" y="546" on="1"/>
      </contour>
      <contour>
        <pt x="326" y="266" on="1"/>
        <pt x="344" y="379" on="1"/>
        <pt x="106" y="379" on="1"/>
        <pt x="118" y="451" on="1"/>
        <pt x="435" y="451" on="1"/>
        <pt x="364" y="0" on="1"/>
        <pt x="48" y="0" on="1"/>
        <pt x="90" y="266" on="1"/>
      </contour>
      <contour>
        <pt x="314" y="193" on="1"/>
        <pt x="153" y="193" on="1"/>
        <pt x="134" y="74" on="1"/>
        <pt x="296" y="74" on="1"/>
      </contour>
    </TTGlyph>
    <TTGlyph name="b" xMin="29" yMin="0" xMax="417" yMax="676">
      <contour>
        <pt x="175" y="451" on="1"/>
        <pt x="417" y="451" on="1"/>
        <pt x="346" y="0" on="1"/>
        <pt x="29" y="0" on="1"/>
        <pt x="135" y="676" on="1"/>
        <pt x="211" y="676" on="1"/>
      </contour>
      <contour>
        <pt x="116" y="74" on="1"/>
        <pt x="278" y="75" on="1"/>
        <pt x="326" y="379" on="1"/>
        <pt x="164" y="379" on="1"/>
      </contour>
    </TTGlyph>
    <TTGlyph name="backslash" xMin="59" yMin="-153" xMax="180" yMax="675">
      <contour>
        <pt x="136" y="675" on="1"/>
        <pt x="180" y="-136" on="1"/>
        <pt x="103" y="-153" on="1"/>
        <pt x="59" y="658" on="1"/>
      </contour>
    </TTGlyph>
    <TTGlyph name="bar" xMin="16" yMin="-154" xMax="223" yMax="676">
      <contour>
        <pt x="147" y="676" on="1"/>
        <pt x="16" y="-154" on="1"/>
        <pt x="92" y="-154" on="1"/>
        <pt x="223" y="676" on="1"/>
      </contour>
    </TTGlyph>
    <TTGlyph name="braceleft" xMin="-5" yMin="-184" xMax="428" yMax="676">
      <contour>
        <pt x="8" y="296" on="1"/>
        <pt x="119" y="296" on="1"/>
        <pt x="179" y="676" on="1"/>
        <pt x="428" y="676" on="1"/>
        <pt x="415" y="594" on="1"/>
        <pt x="242" y="594" on="1"/>
        <pt x="131" y="-102" on="1"/>
        <pt x="304" y="-102" on="1"/>
        <pt x="291" y="-184" on="1"/>
        <pt x="42" y="-184" on="1"/>
        <pt x="105" y="215" on="1"/>
        <pt x="-5" y="215" on="1"/>
      </contour>
    </TTGlyph>
    <TTGlyph name="braceright" xMin="-89" yMin="-184" xMax="347" yMax="676">
      <contour>
        <pt x="347" y="296" on="1"/>
        <pt x="237" y="296" on="1"/>
        <pt x="297" y="676" on="1"/>
        <pt x="48" y="676" on="1"/>
        <pt x="35" y="594" on="1"/>
        <pt x="208" y="594" on="1"/>
        <pt x="97" y="-102" on="1"/>
        <pt x="-76" y="-102" on="1"/>
        <pt x="-89" y="-184" on="1"/>
        <pt x="160" y="-184" on="1"/>
        <pt x="223" y="215" on="1"/>
        <pt x="334" y="215" on="1"/>
      </contour>
    </TTGlyph>
    <TTGlyph name="bracketleft" xMin="-69" yMin="-195" xMax="317" yMax="676">
      <contour>
        <pt x="180" y="-195" on="1"/>
        <pt x="-69" y="-195" on="1"/>
        <pt x="69" y="676" on="1"/>
        <pt x="317" y="676" on="1"/>
        <pt x="305" y="594" on="1"/>
        <pt x="132" y="594" on="1"/>
        <pt x="19" y="-113" on="1"/>
        <pt x="193" y="-113" on="1"/>
      </contour>
    </TTGlyph>
    <TTGlyph name="bracketright" xMin="-89" yMin="-195" xMax="297" yMax="676">
      <contour>
        <pt x="-89" y="-195" on="1"/>
        <pt x="160" y="-195" on="1"/>
        <pt x="297" y="676" on="1"/>
        <pt x="48" y="676" on="1"/>
        <pt x="36" y="594" on="1"/>
        <pt x="209" y="594" on="1"/>
        <pt x="96" y="-113" on="1"/>
        <pt x="-77" y="-113" on="1"/>
      </contour>
    </TTGlyph>
    <TTGlyph name="breve" xMin="93" yMin="487" xMax="372" yMax="680">
      <contour>
        <pt x="210" y="487" on="1"/>
        <pt x="93" y="627" on="1"/>
        <pt x="157" y="680" on="1"/>
        <pt x="226" y="588" on="1"/>
        <pt x="325" y="680" on="1"/>
        <pt x="372" y="627" on="1"/>
      </contour>
    </TTGlyph>
    <TTGlyph name="brokenbar" xMin="17" yMin="-143" xMax="222" yMax="676">
      <contour>
        <pt x="72" y="205" on="1"/>
        <pt x="17" y="-143" on="1"/>
        <pt x="93" y="-143" on="1"/>
        <pt x="147" y="205" on="1"/>
      </contour>
      <contour>
        <pt x="146" y="676" on="1"/>
        <pt x="92" y="328" on="1"/>
        <pt x="168" y="328" on="1"/>
        <pt x="222" y="676" on="1"/>
      </contour>
    </TTGlyph>
    <TTGlyph name="bullet" xMin="83" yMin="205" xMax="327" yMax="451">
      <contour>
        <pt x="122" y="451" on="1"/>
        <pt x="327" y="451" on="1"/>
        <pt x="288" y="205" on="1"/>
        <pt x="83" y="205" on="1"/>
      </contour>
    </TTGlyph>
    <TTGlyph name="c" xMin="46" yMin="0" xMax="435" yMax="451">
      <contour>
        <pt x="347" y="376" on="1"/>
        <pt x="185" y="376" on="1"/>
        <pt x="137" y="72" on="1"/>
        <pt x="367" y="72" on="1"/>
        <pt x="355" y="0" on="1"/>
        <pt x="46" y="0" on="1"/>
        <pt x="118" y="451" on="1"/>
        <pt x="435" y="451" on="1"/>
        <pt x="410" y="287" on="1"/>
        <pt x="334" y="287" on="1"/>
      </contour>
    </TTGlyph>
    <TTGlyph name="ccedilla" xMin="60" yMin="-174" xMax="449" yMax="451">
      <contour>
        <pt x="145" y="-174" on="1"/>
        <pt x="225" y="0" on="1"/>
        <pt x="60" y="0" on="1"/>
        <pt x="131" y="451" on="1"/>
        <pt x="449" y="451" on="1"/>
        <pt x="423" y="287" on="1"/>
        <pt x="347" y="287" on="1"/>
        <pt x="361" y="376" on="1"/>
        <pt x="200" y="376" on="1"/>
        <pt x="152" y="72" on="1"/>
        <pt x="381" y="72" on="1"/>
        <pt x="370" y="0" on="1"/>
        <pt x="302" y="0" on="1"/>
        <pt x="231" y="-174" on="1"/>
      </contour>
    </TTGlyph>
    <TTGlyph name="cedilla" xMin="178" yMin="-174" xMax="348" yMax="31">
      <contour>
        <pt x="178" y="-174" on="1"/>
        <pt x="272" y="31" on="1"/>
        <pt x="348" y="31" on="1"/>
        <pt x="264" y="-174" on="1"/>
      </contour>
    </TTGlyph>
    <TTGlyph name="cent" xMin="44" yMin="-82" xMax="432" yMax="563">
      <contour>
        <pt x="231" y="376" on="1"/>
        <pt x="183" y="376" on="1"/>
        <pt x="135" y="72" on="1"/>
        <pt x="183" y="72" on="1"/>
      </contour>
      <contour>
        <pt x="407" y="287" on="1"/>
        <pt x="331" y="287" on="1"/>
        <pt x="345" y="376" on="1"/>
        <pt x="303" y="376" on="1"/>
        <pt x="255" y="72" on="1"/>
        <pt x="365" y="72" on="1"/>
        <pt x="353" y="0" on="1"/>
        <pt x="244" y="0" on="1"/>
        <pt x="230" y="-82" on="1"/>
        <pt x="159" y="-82" on="1"/>
        <pt x="172" y="0" on="1"/>
        <pt x="44" y="0" on="1"/>
        <pt x="115" y="451" on="1"/>
        <pt x="243" y="451" on="1"/>
        <pt x="261" y="563" on="1"/>
        <pt x="333" y="563" on="1"/>
        <pt x="314" y="451" on="1"/>
        <pt x="432" y="451" on="1"/>
      </contour>
    </TTGlyph>
    <TTGlyph name="circumflex" xMin="79" yMin="487" xMax="357" yMax="680">
      <contour>
        <pt x="241" y="680" on="1"/>
        <pt x="357" y="541" on="1"/>
        <pt x="294" y="487" on="1"/>
        <pt x="224" y="580" on="1"/>
        <pt x="126" y="487" on="1"/>
        <pt x="79" y="541" on="1"/>
      </contour>
    </TTGlyph>
    <TTGlyph name="colon" xMin="46" yMin="0" xMax="194" yMax="451">
      <contour>
        <pt x="66" y="123" on="1"/>
        <pt x="46" y="0" on="1"/>
        <pt x="122" y="0" on="1"/>
        <pt x="141" y="123" on="1"/>
      </contour>
      <contour>
        <pt x="118" y="451" on="1"/>
        <pt x="98" y="328" on="1"/>
        <pt x="174" y="328" on="1"/>
        <pt x="194" y="451" on="1"/>
      </contour>
    </TTGlyph>
    <TTGlyph name="comma" xMin="35" yMin="-82" xMax="195" yMax="123">
      <contour>
        <pt x="35" y="-82" on="1"/>
        <pt x="119" y="123" on="1"/>
        <pt x="195" y="123" on="1"/>
        <pt x="111" y="-82" on="1"/>
      </contour>
    </TTGlyph>
    <TTGlyph name="copyright" xMin="29" yMin="-76" xMax="637" yMax="594">
      <contour>
        <pt x="380" y="355" on="1"/>
        <pt x="321" y="355" on="1"/>
        <pt x="292" y="174" on="1"/>
        <pt x="409" y="174" on="1"/>
        <pt x="397" y="102" on="1"/>
        <pt x="211" y="102" on="1"/>
        <pt x="262" y="430" on="1"/>
        <pt x="457" y="430" on="1"/>
        <pt x="434" y="287" on="1"/>
        <pt x="369" y="287" on="1"/>
      </contour>
      <contour>
        <pt x="117" y="2" on="1"/>
        <pt x="463" y="2" on="1"/>
        <pt x="546" y="521" on="1"/>
        <pt x="200" y="521" on="1"/>
      </contour>
      <contour>
        <pt x="29" y="-76" on="1"/>
        <pt x="135" y="594" on="1"/>
        <pt x="637" y="594" on="1"/>
        <pt x="530" y="-76" on="1"/>
      </contour>
    </TTGlyph>
    <TTGlyph name="d" xMin="29" yMin="0" xMax="453" yMax="676">
      <contour>
        <pt x="341" y="451" on="1"/>
        <pt x="377" y="676" on="1"/>
        <pt x="453" y="676" on="1"/>
        <pt x="346" y="0" on="1"/>
        <pt x="29" y="0" on="1"/>
        <pt x="99" y="451" on="1"/>
      </contour>
      <contour>
        <pt x="282" y="74" on="1"/>
        <pt x="330" y="379" on="1"/>
        <pt x="168" y="379" on="1"/>
        <pt x="120" y="75" on="1"/>
      </contour>
    </TTGlyph>
    <TTGlyph name="dieresis" xMin="72" yMin="543" xMax="352" yMax="676">
      <contour>
        <pt x="92" y="676" on="1"/>
        <pt x="72" y="543" on="1"/>
        <pt x="147" y="543" on="1"/>
        <pt x="168" y="676" on="1"/>
      </contour>
      <contour>
        <pt x="276" y="676" on="1"/>
        <pt x="256" y="543" on="1"/>
        <pt x="332" y="543" on="1"/>
        <pt x="352" y="676" on="1"/>
      </contour>
    </TTGlyph>
    <TTGlyph name="divide" xMin="36" yMin="0" xMax="477" yMax="451">
      <contour>
        <pt x="201" y="102" on="1"/>
        <pt x="184" y="0" on="1"/>
        <pt x="260" y="0" on="1"/>
        <pt x="276" y="102" on="1"/>
      </contour>
      <contour>
        <pt x="256" y="451" on="1"/>
        <pt x="240" y="348" on="1"/>
        <pt x="315" y="348" on="1"/>
        <pt x="332" y="451" on="1"/>
      </contour>
      <contour>
        <pt x="466" y="195" on="1"/>
        <pt x="477" y="266" on="1"/>
        <pt x="47" y="266" on="1"/>
        <pt x="36" y="195" on="1"/>
      </contour>
    </TTGlyph>
    <TTGlyph name="dollar" xMin="44" yMin="-82" xMax="432" yMax="563">
      <contour>
        <pt x="249" y="75" on="1"/>
        <pt x="293" y="75" on="1"/>
        <pt x="308" y="170" on="1"/>
        <pt x="265" y="176" on="1"/>
      </contour>
      <contour>
        <pt x="225" y="376" on="1"/>
        <pt x="183" y="376" on="1"/>
        <pt x="168" y="276" on="1"/>
        <pt x="209" y="270" on="1"/>
      </contour>
      <contour>
        <pt x="327" y="563" on="1"/>
        <pt x="308" y="451" on="1"/>
        <pt x="432" y="451" on="1"/>
        <pt x="413" y="328" on="1"/>
        <pt x="337" y="328" on="1"/>
        <pt x="345" y="376" on="1"/>
        <pt x="297" y="376" on="1"/>
        <pt x="279" y="260" on="1"/>
        <pt x="397" y="243" on="1"/>
        <pt x="359" y="1" on="1"/>
        <pt x="238" y="1" on="1"/>
        <pt x="224" y="-82" on="1"/>
        <pt x="153" y="-82" on="1"/>
        <pt x="166" y="0" on="1"/>
        <pt x="44" y="0" on="1"/>
        <pt x="61" y="113" on="1"/>
        <pt x="137" y="113" on="1"/>
        <pt x="131" y="75" on="1"/>
        <pt x="177" y="75" on="1"/>
        <pt x="196" y="187" on="1"/>
        <pt x="76" y="205" on="1"/>
        <pt x="115" y="451" on="1"/>
        <pt x="237" y="451" on="1"/>
        <pt x="255" y="563" on="1"/>
      </contour>
    </TTGlyph>
    <TTGlyph name="dotlessi" xMin="46" yMin="0" xMax="194" yMax="451">
      <contour>
        <pt x="118" y="450" on="1"/>
        <pt x="46" y="0" on="1"/>
        <pt x="122" y="0" on="1"/>
        <pt x="194" y="451" on="1"/>
      </contour>
    </TTGlyph>
    <TTGlyph name="e" xMin="46" yMin="0" xMax="433" yMax="451">
      <contour>
        <pt x="156" y="184" on="1"/>
        <pt x="137" y="72" on="1"/>
        <pt x="375" y="72" on="1"/>
        <pt x="364" y="0" on="1"/>
        <pt x="46" y="0" on="1"/>
        <pt x="118" y="451" on="1"/>
        <pt x="433" y="451" on="1"/>
        <pt x="391" y="184" on="1"/>
      </contour>
      <contour>
        <pt x="167" y="258" on="1"/>
        <pt x="329" y="258" on="1"/>
        <pt x="347" y="377" on="1"/>
        <pt x="185" y="377" on="1"/>
      </contour>
    </TTGlyph>
    <TTGlyph name="eacute" xMin="46" yMin="0" xMax="433" yMax="676">
      <contour>
        <pt x="156" y="184" on="1"/>
        <pt x="137" y="72" on="1"/>
        <pt x="375" y="72" on="1"/>
        <pt x="364" y="0" on="1"/>
        <pt x="46" y="0" on="1"/>
        <pt x="118" y="451" on="1"/>
        <pt x="433" y="451" on="1"/>
        <pt x="391" y="184" on="1"/>
      </contour>
      <contour>
        <pt x="167" y="258" on="1"/>
        <pt x="329" y="258" on="1"/>
        <pt x="347" y="377" on="1"/>
        <pt x="185" y="377" on="1"/>
      </contour>
      <contour>
        <pt x="302" y="676" on="1"/>
        <pt x="76" y="543" on="1"/>
        <pt x="122" y="481" on="1"/>
        <pt x="348" y="614" on="1"/>
      </contour>
    </TTGlyph>
    <TTGlyph name="ecircumflex" xMin="46" yMin="0" xMax="433" yMax="680">
      <contour>
        <pt x="156" y="184" on="1"/>
        <pt x="137" y="72" on="1"/>
        <pt x="375" y="72" on="1"/>
        <pt x="364" y="0" on="1"/>
        <pt x="46" y="0" on="1"/>
        <pt x="118" y="451" on="1"/>
        <pt x="433" y="451" on="1"/>
        <pt x="391" y="184" on="1"/>
      </contour>
      <contour>
        <pt x="167" y="258" on="1"/>
        <pt x="329" y="258" on="1"/>
        <pt x="347" y="377" on="1"/>
        <pt x="185" y="377" on="1"/>
      </contour>
      <contour>
        <pt x="241" y="680" on="1"/>
        <pt x="357" y="541" on="1"/>
        <pt x="294" y="487" on="1"/>
        <pt x="224" y="580" on="1"/>
        <pt x="126" y="487" on="1"/>
        <pt x="79" y="541" on="1"/>
      </contour>
    </TTGlyph>
    <TTGlyph name="edieresis" xMin="46" yMin="0" xMax="433" yMax="676">
      <contour>
        <pt x="156" y="184" on="1"/>
        <pt x="137" y="72" on="1"/>
        <pt x="375" y="72" on="1"/>
        <pt x="364" y="0" on="1"/>
        <pt x="46" y="0" on="1"/>
        <pt x="118" y="451" on="1"/>
        <pt x="433" y="451" on="1"/>
        <pt x="391" y="184" on="1"/>
      </contour>
      <contour>
        <pt x="167" y="258" on="1"/>
        <pt x="329" y="258" on="1"/>
        <pt x="347" y="377" on="1"/>
        <pt x="185" y="377" on="1"/>
      </contour>
      <contour>
        <pt x="92" y="676" on="1"/>
        <pt x="72" y="543" on="1"/>
        <pt x="147" y="543" on="1"/>
        <pt x="168" y="676" on="1"/>
      </contour>
      <contour>
        <pt x="276" y="676" on="1"/>
        <pt x="256" y="543" on="1"/>
        <pt x="332" y="543" on="1"/>
        <pt x="352" y="676" on="1"/>
      </contour>
    </TTGlyph>
    <TTGlyph name="egrave" xMin="46" yMin="0" xMax="433" yMax="676">
      <contour>
        <pt x="156" y="184" on="1"/>
        <pt x="137" y="72" on="1"/>
        <pt x="375" y="72" on="1"/>
        <pt x="364" y="0" on="1"/>
        <pt x="46" y="0" on="1"/>
        <pt x="118" y="451" on="1"/>
        <pt x="433" y="451" on="1"/>
        <pt x="391" y="184" on="1"/>
      </contour>
      <contour>
        <pt x="167" y="258" on="1"/>
        <pt x="329" y="258" on="1"/>
        <pt x="347" y="377" on="1"/>
        <pt x="185" y="377" on="1"/>
      </contour>
      <contour>
        <pt x="153" y="676" on="1"/>
        <pt x="336" y="543" on="1"/>
        <pt x="271" y="481" on="1"/>
        <pt x="88" y="614" on="1"/>
      </contour>
    </TTGlyph>
    <TTGlyph name="eight" xMin="61" yMin="0" xMax="451" yMax="451">
      <contour>
        <pt x="183" y="255" on="1"/>
        <pt x="344" y="255" on="1"/>
        <pt x="362" y="376" on="1"/>
        <pt x="202" y="376" on="1"/>
      </contour>
      <contour>
        <pt x="170" y="174" on="1"/>
        <pt x="155" y="78" on="1"/>
        <pt x="315" y="79" on="1"/>
        <pt x="331" y="174" on="1"/>
      </contour>
      <contour>
        <pt x="133" y="451" on="1"/>
        <pt x="451" y="451" on="1"/>
        <pt x="379" y="0" on="1"/>
        <pt x="61" y="1" on="1"/>
      </contour>
    </TTGlyph>
    <TTGlyph name="emdash" xMin="-6" yMin="205" xMax="1030" yMax="276">
      <contour>
        <pt x="1018" y="205" on="1"/>
        <pt x="1030" y="276" on="1"/>
        <pt x="6" y="276" on="1"/>
        <pt x="-6" y="205" on="1"/>
      </contour>
    </TTGlyph>
    <TTGlyph name="endash" xMin="-6" yMin="205" xMax="518" yMax="276">
      <contour>
        <pt x="506" y="205" on="1"/>
        <pt x="518" y="276" on="1"/>
        <pt x="6" y="276" on="1"/>
        <pt x="-6" y="205" on="1"/>
      </contour>
    </TTGlyph>
    <TTGlyph name="equal" xMin="10" yMin="123" xMax="481" yMax="317">
      <contour>
        <pt x="470" y="246" on="1"/>
        <pt x="481" y="317" on="1"/>
        <pt x="41" y="317" on="1"/>
        <pt x="30" y="246" on="1"/>
      </contour>
      <contour>
        <pt x="451" y="123" on="1"/>
        <pt x="462" y="195" on="1"/>
        <pt x="22" y="195" on="1"/>
        <pt x="10" y="123" on="1"/>
      </contour>
    </TTGlyph>
    <TTGlyph name="exclam" xMin="29" yMin="0" xMax="211" yMax="676">
      <contour>
        <pt x="140" y="226" on="1"/>
        <pt x="211" y="676" on="1"/>
        <pt x="135" y="676" on="1"/>
        <pt x="65" y="225" on="1"/>
      </contour>
      <contour>
        <pt x="104" y="0" on="1"/>
        <pt x="125" y="133" on="1"/>
        <pt x="49" y="133" on="1"/>
        <pt x="29" y="0" on="1"/>
      </contour>
    </TTGlyph>
    <TTGlyph name="exclamdown" xMin="29" yMin="0" xMax="211" yMax="676">
      <contour>
        <pt x="99" y="450" on="1"/>
        <pt x="29" y="0" on="1"/>
        <pt x="104" y="0" on="1"/>
        <pt x="175" y="451" on="1"/>
      </contour>
      <contour>
        <pt x="135" y="676" on="1"/>
        <pt x="115" y="543" on="1"/>
        <pt x="190" y="543" on="1"/>
        <pt x="211" y="676" on="1"/>
      </contour>
    </TTGlyph>
    <TTGlyph name="f" xMin="91" yMin="0" xMax="451" yMax="645">
      <contour>
        <pt x="102" y="450" on="1"/>
        <pt x="201" y="450" on="1"/>
        <pt x="231" y="645" on="1"/>
        <pt x="451" y="645" on="1"/>
        <pt x="439" y="574" on="1"/>
        <pt x="296" y="574" on="1"/>
        <pt x="276" y="450" on="1"/>
        <pt x="420" y="450" on="1"/>
        <pt x="409" y="379" on="1"/>
        <pt x="265" y="379" on="1"/>
        <pt x="205" y="0" on="1"/>
        <pt x="129" y="0" on="1"/>
        <pt x="189" y="379" on="1"/>
        <pt x="91" y="379" on="1"/>
      </contour>
    </TTGlyph>
    <TTGlyph name="fi" xMin="91" yMin="0" xMax="621" yMax="676">
      <contour>
        <pt x="102" y="450" on="1"/>
        <pt x="201" y="450" on="1"/>
        <pt x="231" y="645" on="1"/>
        <pt x="451" y="645" on="1"/>
        <pt x="439" y="574" on="1"/>
        <pt x="296" y="574" on="1"/>
        <pt x="276" y="450" on="1"/>
        <pt x="420" y="450" on="1"/>
        <pt x="409" y="379" on="1"/>
        <pt x="265" y="379" on="1"/>
        <pt x="205" y="0" on="1"/>
        <pt x="129" y="0" on="1"/>
        <pt x="189" y="379" on="1"/>
        <pt x="91" y="379" on="1"/>
      </contour>
      <contour>
        <pt x="509" y="450" on="1"/>
        <pt x="438" y="0" on="1"/>
        <pt x="514" y="0" on="1"/>
        <pt x="585" y="451" on="1"/>
      </contour>
      <contour>
        <pt x="545" y="676" on="1"/>
        <pt x="524" y="543" on="1"/>
        <pt x="600" y="543" on="1"/>
        <pt x="621" y="676" on="1"/>
      </contour>
    </TTGlyph>
    <TTGlyph name="five" xMin="61" yMin="0" xMax="451" yMax="450">
      <contour>
        <pt x="329" y="196" on="1"/>
        <pt x="310" y="75" on="1"/>
        <pt x="150" y="75" on="1"/>
        <pt x="159" y="133" on="1"/>
        <pt x="83" y="133" on="1"/>
        <pt x="61" y="0" on="1"/>
        <pt x="379" y="0" on="1"/>
        <pt x="423" y="276" on="1"/>
        <pt x="194" y="276" on="1"/>
        <pt x="209" y="372" on="1"/>
        <pt x="438" y="373" on="1"/>
        <pt x="451" y="450" on="1"/>
        <pt x="133" y="450" on="1"/>
        <pt x="92" y="196" on="1"/>
      </contour>
    </TTGlyph>
    <TTGlyph name="fl" xMin="91" yMin="0" xMax="621" yMax="676">
      <contour>
        <pt x="102" y="450" on="1"/>
        <pt x="201" y="450" on="1"/>
        <pt x="231" y="645" on="1"/>
        <pt x="451" y="645" on="1"/>
        <pt x="439" y="574" on="1"/>
        <pt x="296" y="574" on="1"/>
        <pt x="276" y="450" on="1"/>
        <pt x="420" y="450" on="1"/>
        <pt x="409" y="379" on="1"/>
        <pt x="265" y="379" on="1"/>
        <pt x="205" y="0" on="1"/>
        <pt x="129" y="0" on="1"/>
        <pt x="189" y="379" on="1"/>
        <pt x="91" y="379" on="1"/>
      </contour>
      <contour>
        <pt x="545" y="676" on="1"/>
        <pt x="438" y="0" on="1"/>
        <pt x="514" y="0" on="1"/>
        <pt x="621" y="676" on="1"/>
      </contour>
    </TTGlyph>
    <TTGlyph name="florin" xMin="91" yMin="-195" xMax="451" yMax="451">
      <contour>
        <pt x="102" y="255" on="1"/>
        <pt x="201" y="255" on="1"/>
        <pt x="231" y="451" on="1"/>
        <pt x="451" y="451" on="1"/>
        <pt x="439" y="380" on="1"/>
        <pt x="296" y="380" on="1"/>
        <pt x="276" y="255" on="1"/>
        <pt x="420" y="255" on="1"/>
        <pt x="409" y="184" on="1"/>
        <pt x="265" y="184" on="1"/>
        <pt x="205" y="-195" on="1"/>
        <pt x="129" y="-195" on="1"/>
        <pt x="189" y="184" on="1"/>
        <pt x="91" y="184" on="1"/>
      </contour>
    </TTGlyph>
    <TTGlyph name="four" xMin="49" yMin="-102" xMax="428" yMax="451">
      <contour>
        <pt x="287" y="75" on="1"/>
        <pt x="322" y="294" on="1"/>
        <pt x="160" y="75" on="1"/>
      </contour>
      <contour>
        <pt x="338" y="-102" on="1"/>
        <pt x="258" y="-102" on="1"/>
        <pt x="274" y="0" on="1"/>
        <pt x="49" y="1" on="1"/>
        <pt x="61" y="79" on="1"/>
        <pt x="346" y="451" on="1"/>
        <pt x="426" y="451" on="1"/>
        <pt x="367" y="75" on="1"/>
        <pt x="428" y="75" on="1"/>
        <pt x="416" y="0" on="1"/>
        <pt x="354" y="0" on="1"/>
      </contour>
    </TTGlyph>
    <TTGlyph name="fraction" xMin="49" yMin="1" xMax="431" yMax="480">
      <contour>
        <pt x="431" y="444" on="1"/>
        <pt x="375" y="480" on="1"/>
        <pt x="49" y="37" on="1"/>
        <pt x="106" y="1" on="1"/>
      </contour>
    </TTGlyph>
    <TTGlyph name="g" xMin="32" yMin="-184" xMax="450" yMax="451">
      <contour>
        <pt x="298" y="0" on="1"/>
        <pt x="281" y="-113" on="1"/>
        <pt x="43" y="-113" on="1"/>
        <pt x="32" y="-184" on="1"/>
        <pt x="349" y="-184" on="1"/>
        <pt x="450" y="451" on="1"/>
        <pt x="134" y="451" on="1"/>
        <pt x="62" y="0" on="1"/>
      </contour>
      <contour>
        <pt x="310" y="74" on="1"/>
        <pt x="148" y="74" on="1"/>
        <pt x="197" y="377" on="1"/>
        <pt x="358" y="377" on="1"/>
      </contour>
    </TTGlyph>
    <TTGlyph name="germandbls" xMin="31" yMin="0" xMax="608" yMax="645">
      <contour>
        <pt x="133" y="645" on="1"/>
        <pt x="352" y="645" on="1"/>
        <pt x="341" y="574" on="1"/>
        <pt x="198" y="574" on="1"/>
        <pt x="106" y="0" on="1"/>
        <pt x="31" y="0" on="1"/>
      </contour>
      <contour>
        <pt x="307" y="75" on="1"/>
        <pt x="313" y="113" on="1"/>
        <pt x="238" y="113" on="1"/>
        <pt x="219" y="0" on="1"/>
        <pt x="535" y="1" on="1"/>
        <pt x="571" y="232" on="1"/>
        <pt x="344" y="287" on="1"/>
        <pt x="358" y="376" on="1"/>
        <pt x="520" y="376" on="1"/>
        <pt x="506" y="287" on="1"/>
        <pt x="582" y="287" on="1"/>
        <pt x="608" y="451" on="1"/>
        <pt x="291" y="451" on="1"/>
        <pt x="253" y="215" on="1"/>
        <pt x="482" y="160" on="1"/>
        <pt x="469" y="75" on="1"/>
      </contour>
    </TTGlyph>
    <TTGlyph name="grave" xMin="88" yMin="481" xMax="336" yMax="676">
      <contour>
        <pt x="153" y="676" on="1"/>
        <pt x="336" y="543" on="1"/>
        <pt x="271" y="481" on="1"/>
        <pt x="88" y="614" on="1"/>
      </contour>
    </TTGlyph>
    <TTGlyph name="greater" xMin="-15" yMin="4" xMax="502" yMax="467">
      <contour>
        <pt x="502" y="236" on="1"/>
        <pt x="111" y="467" on="1"/>
        <pt x="36" y="399" on="1"/>
        <pt x="335" y="236" on="1"/>
        <pt x="-15" y="72" on="1"/>
        <pt x="37" y="4" on="1"/>
      </contour>
    </TTGlyph>
    <TTGlyph name="greaterequal" xMin="-13" yMin="0" xMax="347" yMax="498">
      <contour>
        <pt x="347" y="307" on="1"/>
        <pt x="145" y="498" on="1"/>
        <pt x="82" y="440" on="1"/>
        <pt x="231" y="307" on="1"/>
        <pt x="39" y="174" on="1"/>
        <pt x="86" y="117" on="1"/>
      </contour>
      <contour>
        <pt x="-13" y="0" on="1"/>
        <pt x="-2" y="72" on="1"/>
        <pt x="336" y="72" on="1"/>
        <pt x="325" y="0" on="1"/>
      </contour>
    </TTGlyph>
    <TTGlyph name="guillemotleft" xMin="51" yMin="4" xMax="570" yMax="467">
      <contour>
        <pt x="51" y="236" on="1"/>
        <pt x="319" y="467" on="1"/>
        <pt x="366" y="410" on="1"/>
        <pt x="167" y="236" on="1"/>
        <pt x="310" y="61" on="1"/>
        <pt x="246" y="4" on="1"/>
      </contour>
      <contour>
        <pt x="256" y="236" on="1"/>
        <pt x="524" y="467" on="1"/>
        <pt x="570" y="410" on="1"/>
        <pt x="372" y="236" on="1"/>
        <pt x="515" y="61" on="1"/>
        <pt x="451" y="4" on="1"/>
      </contour>
    </TTGlyph>
    <TTGlyph name="guillemotright" xMin="24" yMin="4" xMax="543" yMax="467">
      <contour>
        <pt x="543" y="236" on="1"/>
        <pt x="348" y="467" on="1"/>
        <pt x="284" y="410" on="1"/>
        <pt x="427" y="236" on="1"/>
        <pt x="228" y="61" on="1"/>
        <pt x="274" y="4" on="1"/>
      </contour>
      <contour>
        <pt x="338" y="236" on="1"/>
        <pt x="143" y="467" on="1"/>
        <pt x="79" y="410" on="1"/>
        <pt x="222" y="236" on="1"/>
        <pt x="24" y="61" on="1"/>
        <pt x="70" y="4" on="1"/>
      </contour>
    </TTGlyph>
    <TTGlyph name="guilsinglleft" xMin="51" yMin="4" xMax="366" yMax="467">
      <contour>
        <pt x="51" y="236" on="1"/>
        <pt x="319" y="467" on="1"/>
        <pt x="366" y="410" on="1"/>
        <pt x="167" y="236" on="1"/>
        <pt x="310" y="61" on="1"/>
        <pt x="246" y="4" on="1"/>
      </contour>
    </TTGlyph>
    <TTGlyph name="guilsinglright" xMin="24" yMin="4" xMax="338" yMax="467">
      <contour>
        <pt x="338" y="236" on="1"/>
        <pt x="143" y="467" on="1"/>
        <pt x="79" y="410" on="1"/>
        <pt x="222" y="236" on="1"/>
        <pt x="24" y="61" on="1"/>
        <pt x="70" y="4" on="1"/>
      </contour>
    </TTGlyph>
    <TTGlyph name="h" xMin="29" yMin="0" xMax="417" yMax="676">
      <contour>
        <pt x="346" y="0" on="1"/>
        <pt x="417" y="451" on="1"/>
        <pt x="175" y="451" on="1"/>
        <pt x="211" y="676" on="1"/>
        <pt x="135" y="676" on="1"/>
        <pt x="29" y="0" on="1"/>
        <pt x="104" y="0" on="1"/>
        <pt x="164" y="379" on="1"/>
        <pt x="326" y="379" on="1"/>
        <pt x="266" y="0" on="1"/>
      </contour>
    </TTGlyph>
    <TTGlyph name="hyphen" xMin="19" yMin="205" xMax="308" yMax="276">
      <contour>
        <pt x="296" y="205" on="1"/>
        <pt x="308" y="276" on="1"/>
        <pt x="32" y="276" on="1"/>
        <pt x="19" y="205" on="1"/>
      </contour>
    </TTGlyph>
    <TTGlyph name="i" xMin="29" yMin="0" xMax="211" yMax="676">
      <contour>
        <pt x="99" y="450" on="1"/>
        <pt x="29" y="0" on="1"/>
        <pt x="104" y="0" on="1"/>
        <pt x="175" y="451" on="1"/>
      </contour>
      <contour>
        <pt x="135" y="676" on="1"/>
        <pt x="115" y="543" on="1"/>
        <pt x="190" y="543" on="1"/>
        <pt x="211" y="676" on="1"/>
      </contour>
    </TTGlyph>
    <TTGlyph name="iacute" xMin="-16" yMin="0" xMax="256" yMax="676">
      <contour>
        <pt x="118" y="450" on="1"/>
        <pt x="46" y="0" on="1"/>
        <pt x="122" y="0" on="1"/>
        <pt x="194" y="451" on="1"/>
      </contour>
      <contour>
        <pt x="210" y="676" on="1"/>
        <pt x="-16" y="543" on="1"/>
        <pt x="30" y="481" on="1"/>
        <pt x="256" y="614" on="1"/>
      </contour>
    </TTGlyph>
    <TTGlyph name="icircumflex" xMin="-24" yMin="0" xMax="255" yMax="680">
      <contour>
        <pt x="118" y="450" on="1"/>
        <pt x="46" y="0" on="1"/>
        <pt x="122" y="0" on="1"/>
        <pt x="194" y="451" on="1"/>
      </contour>
      <contour>
        <pt x="138" y="680" on="1"/>
        <pt x="255" y="541" on="1"/>
        <pt x="191" y="487" on="1"/>
        <pt x="122" y="580" on="1"/>
        <pt x="24" y="487" on="1"/>
        <pt x="-24" y="541" on="1"/>
      </contour>
    </TTGlyph>
    <TTGlyph name="idieresis" xMin="-20" yMin="0" xMax="260" yMax="676">
      <contour>
        <pt x="118" y="450" on="1"/>
        <pt x="46" y="0" on="1"/>
        <pt x="122" y="0" on="1"/>
        <pt x="194" y="451" on="1"/>
      </contour>
      <contour>
        <pt x="0" y="676" on="1"/>
        <pt x="-20" y="543" on="1"/>
        <pt x="55" y="543" on="1"/>
        <pt x="76" y="676" on="1"/>
      </contour>
      <contour>
        <pt x="184" y="676" on="1"/>
        <pt x="164" y="543" on="1"/>
        <pt x="240" y="543" on="1"/>
        <pt x="260" y="676" on="1"/>
      </contour>
    </TTGlyph>
    <TTGlyph name="igrave" xMin="-4" yMin="0" xMax="244" yMax="676">
      <contour>
        <pt x="118" y="450" on="1"/>
        <pt x="46" y="0" on="1"/>
        <pt x="122" y="0" on="1"/>
        <pt x="194" y="451" on="1"/>
      </contour>
      <contour>
        <pt x="60" y="676" on="1"/>
        <pt x="244" y="543" on="1"/>
        <pt x="179" y="481" on="1"/>
        <pt x="-4" y="614" on="1"/>
      </contour>
    </TTGlyph>
    <TTGlyph name="infinity" xMin="5" yMin="77" xMax="507" yMax="394">
      <contour>
        <pt x="204" y="158" on="1"/>
        <pt x="229" y="318" on="1"/>
        <pt x="119" y="318" on="1"/>
        <pt x="93" y="158" on="1"/>
      </contour>
      <contour>
        <pt x="285" y="158" on="1"/>
        <pt x="390" y="158" on="1"/>
        <pt x="416" y="318" on="1"/>
        <pt x="310" y="318" on="1"/>
      </contour>
      <contour>
        <pt x="5" y="77" on="1"/>
        <pt x="56" y="394" on="1"/>
        <pt x="507" y="394" on="1"/>
        <pt x="455" y="77" on="1"/>
      </contour>
    </TTGlyph>
    <TTGlyph name="j" xMin="-66" yMin="-154" xMax="222" yMax="676">
      <contour>
        <pt x="146" y="676" on="1"/>
        <pt x="222" y="676" on="1"/>
        <pt x="202" y="543" on="1"/>
        <pt x="126" y="543" on="1"/>
      </contour>
      <contour>
        <pt x="-66" y="-154" on="1"/>
        <pt x="-53" y="-78" on="1"/>
        <pt x="28" y="-78" on="1"/>
        <pt x="111" y="450" on="1"/>
        <pt x="186" y="450" on="1"/>
        <pt x="91" y="-154" on="1"/>
      </contour>
    </TTGlyph>
    <TTGlyph name="k" xMin="29" yMin="0" xMax="437" yMax="676">
      <contour>
        <pt x="377" y="0" on="1"/>
        <pt x="214" y="233" on="1"/>
        <pt x="437" y="450" on="1"/>
        <pt x="329" y="450" on="1"/>
        <pt x="145" y="259" on="1"/>
        <pt x="211" y="676" on="1"/>
        <pt x="135" y="676" on="1"/>
        <pt x="29" y="0" on="1"/>
        <pt x="104" y="0" on="1"/>
        <pt x="135" y="198" on="1"/>
        <pt x="151" y="198" on="1"/>
        <pt x="259" y="0" on="1"/>
      </contour>
    </TTGlyph>
    <TTGlyph name="l" xMin="29" yMin="0" xMax="211" yMax="676">
      <contour>
        <pt x="135" y="676" on="1"/>
        <pt x="29" y="0" on="1"/>
        <pt x="104" y="0" on="1"/>
        <pt x="211" y="676" on="1"/>
      </contour>
    </TTGlyph>
    <TTGlyph name="less" xMin="10" yMin="4" xMax="527" yMax="467">
      <contour>
        <pt x="10" y="236" on="1"/>
        <pt x="475" y="467" on="1"/>
        <pt x="527" y="399" on="1"/>
        <pt x="177" y="236" on="1"/>
        <pt x="476" y="72" on="1"/>
        <pt x="401" y="4" on="1"/>
      </contour>
    </TTGlyph>
    <TTGlyph name="lessequal" xMin="-13" yMin="0" xMax="369" yMax="498">
      <contour>
        <pt x="60" y="307" on="1"/>
        <pt x="322" y="498" on="1"/>
        <pt x="369" y="440" on="1"/>
        <pt x="176" y="307" on="1"/>
        <pt x="326" y="174" on="1"/>
        <pt x="262" y="117" on="1"/>
      </contour>
      <contour>
        <pt x="325" y="0" on="1"/>
        <pt x="336" y="72" on="1"/>
        <pt x="-2" y="72" on="1"/>
        <pt x="-13" y="0" on="1"/>
      </contour>
    </TTGlyph>
    <TTGlyph name="m" xMin="46" yMin="0" xMax="671" yMax="451">
      <contour>
        <pt x="364" y="0" on="1"/>
        <pt x="282" y="0" on="1"/>
        <pt x="342" y="379" on="1"/>
        <pt x="182" y="379" on="1"/>
        <pt x="122" y="0" on="1"/>
        <pt x="46" y="0" on="1"/>
        <pt x="118" y="451" on="1"/>
        <pt x="671" y="451" on="1"/>
        <pt x="599" y="0" on="1"/>
        <pt x="519" y="0" on="1"/>
        <pt x="580" y="379" on="1"/>
        <pt x="424" y="379" on="1"/>
      </contour>
    </TTGlyph>
    <TTGlyph name="minus" xMin="9" yMin="205" xMax="400" yMax="276">
      <contour>
        <pt x="388" y="205" on="1"/>
        <pt x="400" y="276" on="1"/>
        <pt x="22" y="276" on="1"/>
        <pt x="9" y="205" on="1"/>
      </contour>
    </TTGlyph>
    <TTGlyph name="multiply" xMin="51" yMin="44" xMax="461" yMax="414">
      <contour>
        <pt x="353" y="44" on="1"/>
        <pt x="247" y="171" on="1"/>
        <pt x="100" y="44" on="1"/>
        <pt x="51" y="102" on="1"/>
        <pt x="199" y="228" on="1"/>
        <pt x="92" y="355" on="1"/>
        <pt x="159" y="414" on="1"/>
        <pt x="265" y="287" on="1"/>
        <pt x="413" y="414" on="1"/>
        <pt x="461" y="355" on="1"/>
        <pt x="314" y="228" on="1"/>
        <pt x="421" y="102" on="1"/>
      </contour>
    </TTGlyph>
    <TTGlyph name="n" xMin="46" yMin="0" xMax="435" yMax="451">
      <contour>
        <pt x="364" y="0" on="1"/>
        <pt x="435" y="451" on="1"/>
        <pt x="118" y="451" on="1"/>
        <pt x="46" y="0" on="1"/>
        <pt x="122" y="0" on="1"/>
        <pt x="182" y="379" on="1"/>
        <pt x="344" y="379" on="1"/>
        <pt x="284" y="0" on="1"/>
      </contour>
    </TTGlyph>
    <TTGlyph name="nine" xMin="61" yMin="0" xMax="451" yMax="451">
      <contour>
        <pt x="379" y="0" on="1"/>
        <pt x="61" y="1" on="1"/>
        <pt x="74" y="78" on="1"/>
        <pt x="315" y="79" on="1"/>
        <pt x="331" y="174" on="1"/>
        <pt x="89" y="174" on="1"/>
        <pt x="133" y="451" on="1"/>
        <pt x="451" y="451" on="1"/>
      </contour>
      <contour>
        <pt x="183" y="255" on="1"/>
        <pt x="344" y="255" on="1"/>
        <pt x="362" y="376" on="1"/>
        <pt x="202" y="376" on="1"/>
      </contour>
    </TTGlyph>
    <TTGlyph name="notequal" xMin="10" yMin="-30" xMax="481" yMax="388">
      <contour>
        <pt x="451" y="82" on="1"/>
        <pt x="216" y="82" on="1"/>
        <pt x="134" y="-30" on="1"/>
        <pt x="77" y="6" on="1"/>
        <pt x="133" y="82" on="1"/>
        <pt x="10" y="82" on="1"/>
        <pt x="22" y="154" on="1"/>
        <pt x="185" y="154" on="1"/>
        <pt x="223" y="205" on="1"/>
        <pt x="30" y="205" on="1"/>
        <pt x="41" y="276" on="1"/>
        <pt x="275" y="276" on="1"/>
        <pt x="357" y="388" on="1"/>
        <pt x="415" y="352" on="1"/>
        <pt x="358" y="276" on="1"/>
        <pt x="481" y="276" on="1"/>
        <pt x="470" y="205" on="1"/>
        <pt x="306" y="205" on="1"/>
        <pt x="268" y="154" on="1"/>
        <pt x="462" y="154" on="1"/>
      </contour>
    </TTGlyph>
    <TTGlyph name="ntilde" xMin="46" yMin="0" xMax="471" yMax="683">
      <contour>
        <pt x="178" y="623" on="1"/>
        <pt x="258" y="623" on="1"/>
        <pt x="245" y="536" on="1"/>
        <pt x="447" y="536" on="1"/>
        <pt x="471" y="683" on="1"/>
        <pt x="409" y="683" on="1"/>
        <pt x="395" y="600" on="1"/>
        <pt x="319" y="600" on="1"/>
        <pt x="333" y="683" on="1"/>
        <pt x="128" y="683" on="1"/>
        <pt x="104" y="536" on="1"/>
        <pt x="164" y="536" on="1"/>
      </contour>
      <contour>
        <pt x="364" y="0" on="1"/>
        <pt x="435" y="451" on="1"/>
        <pt x="118" y="451" on="1"/>
        <pt x="46" y="0" on="1"/>
        <pt x="122" y="0" on="1"/>
        <pt x="182" y="379" on="1"/>
        <pt x="344" y="379" on="1"/>
        <pt x="284" y="0" on="1"/>
      </contour>
    </TTGlyph>
    <TTGlyph name="numbersign" xMin="22" yMin="287" xMax="395" yMax="636">
      <contour>
        <pt x="239" y="410" on="1"/>
        <pt x="252" y="493" on="1"/>
        <pt x="188" y="493" on="1"/>
        <pt x="175" y="410" on="1"/>
      </contour>
      <contour>
        <pt x="219" y="287" on="1"/>
        <pt x="227" y="339" on="1"/>
        <pt x="165" y="339" on="1"/>
        <pt x="157" y="287" on="1"/>
        <pt x="76" y="287" on="1"/>
        <pt x="84" y="339" on="1"/>
        <pt x="22" y="339" on="1"/>
        <pt x="33" y="410" on="1"/>
        <pt x="95" y="410" on="1"/>
        <pt x="109" y="493" on="1"/>
        <pt x="46" y="493" on="1"/>
        <pt x="57" y="563" on="1"/>
        <pt x="119" y="563" on="1"/>
        <pt x="130" y="636" on="1"/>
        <pt x="211" y="636" on="1"/>
        <pt x="200" y="563" on="1"/>
        <pt x="262" y="563" on="1"/>
        <pt x="273" y="636" on="1"/>
        <pt x="354" y="636" on="1"/>
        <pt x="343" y="563" on="1"/>
        <pt x="395" y="563" on="1"/>
        <pt x="384" y="493" on="1"/>
        <pt x="332" y="493" on="1"/>
        <pt x="318" y="410" on="1"/>
        <pt x="371" y="410" on="1"/>
        <pt x="359" y="339" on="1"/>
        <pt x="308" y="339" on="1"/>
        <pt x="300" y="287" on="1"/>
      </contour>
    </TTGlyph>
    <TTGlyph name="o" xMin="46" yMin="0" xMax="435" yMax="451">
      <contour>
        <pt x="46" y="0" on="1"/>
        <pt x="118" y="451" on="1"/>
        <pt x="435" y="451" on="1"/>
        <pt x="364" y="0" on="1"/>
      </contour>
      <contour>
        <pt x="347" y="377" on="1"/>
        <pt x="185" y="376" on="1"/>
        <pt x="137" y="72" on="1"/>
        <pt x="299" y="72" on="1"/>
      </contour>
    </TTGlyph>
    <TTGlyph name="oacute" xMin="46" yMin="0" xMax="435" yMax="676">
      <contour>
        <pt x="46" y="0" on="1"/>
        <pt x="118" y="451" on="1"/>
        <pt x="435" y="451" on="1"/>
        <pt x="364" y="0" on="1"/>
      </contour>
      <contour>
        <pt x="347" y="377" on="1"/>
        <pt x="185" y="376" on="1"/>
        <pt x="137" y="72" on="1"/>
        <pt x="299" y="72" on="1"/>
      </contour>
      <contour>
        <pt x="302" y="676" on="1"/>
        <pt x="76" y="543" on="1"/>
        <pt x="122" y="481" on="1"/>
        <pt x="348" y="614" on="1"/>
      </contour>
    </TTGlyph>
    <TTGlyph name="ocircumflex" xMin="46" yMin="0" xMax="435" yMax="680">
      <contour>
        <pt x="46" y="0" on="1"/>
        <pt x="118" y="451" on="1"/>
        <pt x="435" y="451" on="1"/>
        <pt x="364" y="0" on="1"/>
      </contour>
      <contour>
        <pt x="347" y="377" on="1"/>
        <pt x="185" y="376" on="1"/>
        <pt x="137" y="72" on="1"/>
        <pt x="299" y="72" on="1"/>
      </contour>
      <contour>
        <pt x="241" y="680" on="1"/>
        <pt x="357" y="541" on="1"/>
        <pt x="294" y="487" on="1"/>
        <pt x="224" y="580" on="1"/>
        <pt x="126" y="487" on="1"/>
        <pt x="79" y="541" on="1"/>
      </contour>
    </TTGlyph>
    <TTGlyph name="odieresis" xMin="46" yMin="0" xMax="435" yMax="676">
      <contour>
        <pt x="46" y="0" on="1"/>
        <pt x="118" y="451" on="1"/>
        <pt x="435" y="451" on="1"/>
        <pt x="364" y="0" on="1"/>
      </contour>
      <contour>
        <pt x="347" y="377" on="1"/>
        <pt x="185" y="376" on="1"/>
        <pt x="137" y="72" on="1"/>
        <pt x="299" y="72" on="1"/>
      </contour>
      <contour>
        <pt x="92" y="676" on="1"/>
        <pt x="72" y="543" on="1"/>
        <pt x="147" y="543" on="1"/>
        <pt x="168" y="676" on="1"/>
      </contour>
      <contour>
        <pt x="276" y="676" on="1"/>
        <pt x="256" y="543" on="1"/>
        <pt x="332" y="543" on="1"/>
        <pt x="352" y="676" on="1"/>
      </contour>
    </TTGlyph>
    <TTGlyph name="oe" xMin="46" yMin="0" xMax="658" yMax="451">
      <contour>
        <pt x="46" y="0" on="1"/>
        <pt x="118" y="451" on="1"/>
        <pt x="658" y="451" on="1"/>
        <pt x="616" y="184" on="1"/>
        <pt x="381" y="184" on="1"/>
        <pt x="362" y="72" on="1"/>
        <pt x="600" y="72" on="1"/>
        <pt x="589" y="0" on="1"/>
      </contour>
      <contour>
        <pt x="554" y="258" on="1"/>
        <pt x="572" y="377" on="1"/>
        <pt x="411" y="377" on="1"/>
        <pt x="392" y="258" on="1"/>
      </contour>
      <contour>
        <pt x="299" y="72" on="1"/>
        <pt x="347" y="377" on="1"/>
        <pt x="185" y="376" on="1"/>
        <pt x="137" y="72" on="1"/>
      </contour>
    </TTGlyph>
    <TTGlyph name="ograve" xMin="46" yMin="0" xMax="435" yMax="676">
      <contour>
        <pt x="46" y="0" on="1"/>
        <pt x="118" y="451" on="1"/>
        <pt x="435" y="451" on="1"/>
        <pt x="364" y="0" on="1"/>
      </contour>
      <contour>
        <pt x="347" y="377" on="1"/>
        <pt x="185" y="376" on="1"/>
        <pt x="137" y="72" on="1"/>
        <pt x="299" y="72" on="1"/>
      </contour>
      <contour>
        <pt x="153" y="676" on="1"/>
        <pt x="336" y="543" on="1"/>
        <pt x="271" y="481" on="1"/>
        <pt x="88" y="614" on="1"/>
      </contour>
    </TTGlyph>
    <TTGlyph name="one" xMin="132" yMin="0" xMax="392" yMax="451">
      <contour>
        <pt x="321" y="0" on="1"/>
        <pt x="245" y="0" on="1"/>
        <pt x="305" y="379" on="1"/>
        <pt x="132" y="379" on="1"/>
        <pt x="143" y="450" on="1"/>
        <pt x="392" y="451" on="1"/>
      </contour>
    </TTGlyph>
    <TTGlyph name="oslash" xMin="45" yMin="-102" xMax="433" yMax="573">
      <contour>
        <pt x="45" y="0" on="1"/>
        <pt x="116" y="451" on="1"/>
        <pt x="298" y="451" on="1"/>
        <pt x="350" y="573" on="1"/>
        <pt x="426" y="573" on="1"/>
        <pt x="374" y="451" on="1"/>
        <pt x="433" y="451" on="1"/>
        <pt x="362" y="0" on="1"/>
        <pt x="179" y="0" on="1"/>
        <pt x="135" y="-102" on="1"/>
        <pt x="59" y="-102" on="1"/>
        <pt x="103" y="0" on="1"/>
      </contour>
      <contour>
        <pt x="265" y="376" on="1"/>
        <pt x="184" y="376" on="1"/>
        <pt x="137" y="78" on="1"/>
      </contour>
      <contour>
        <pt x="346" y="376" on="1"/>
        <pt x="341" y="376" on="1"/>
        <pt x="210" y="72" on="1"/>
        <pt x="298" y="72" on="1"/>
      </contour>
    </TTGlyph>
    <TTGlyph name="otilde" xMin="46" yMin="0" xMax="471" yMax="683">
      <contour>
        <pt x="178" y="623" on="1"/>
        <pt x="258" y="623" on="1"/>
        <pt x="245" y="536" on="1"/>
        <pt x="447" y="536" on="1"/>
        <pt x="471" y="683" on="1"/>
        <pt x="409" y="683" on="1"/>
        <pt x="395" y="600" on="1"/>
        <pt x="319" y="600" on="1"/>
        <pt x="333" y="683" on="1"/>
        <pt x="128" y="683" on="1"/>
        <pt x="104" y="536" on="1"/>
        <pt x="164" y="536" on="1"/>
      </contour>
      <contour>
        <pt x="46" y="0" on="1"/>
        <pt x="118" y="451" on="1"/>
        <pt x="435" y="451" on="1"/>
        <pt x="364" y="0" on="1"/>
      </contour>
      <contour>
        <pt x="347" y="377" on="1"/>
        <pt x="185" y="376" on="1"/>
        <pt x="137" y="72" on="1"/>
        <pt x="299" y="72" on="1"/>
      </contour>
    </TTGlyph>
    <TTGlyph name="p" xMin="29" yMin="-225" xMax="453" yMax="451">
      <contour>
        <pt x="140" y="0" on="1"/>
        <pt x="382" y="0" on="1"/>
        <pt x="453" y="451" on="1"/>
        <pt x="135" y="451" on="1"/>
        <pt x="29" y="-225" on="1"/>
        <pt x="104" y="-225" on="1"/>
      </contour>
      <contour>
        <pt x="200" y="377" on="1"/>
        <pt x="361" y="376" on="1"/>
        <pt x="313" y="72" on="1"/>
        <pt x="152" y="72" on="1"/>
      </contour>
    </TTGlyph>
    <TTGlyph name="paragraph" xMin="77" yMin="0" xMax="373" yMax="573">
      <contour>
        <pt x="77" y="256" on="1"/>
        <pt x="246" y="256" on="1"/>
        <pt x="206" y="0" on="1"/>
        <pt x="283" y="0" on="1"/>
        <pt x="373" y="573" on="1"/>
        <pt x="127" y="573" on="1"/>
      </contour>
      <contour>
        <pt x="168" y="328" on="1"/>
        <pt x="196" y="502" on="1"/>
        <pt x="285" y="502" on="1"/>
        <pt x="257" y="328" on="1"/>
      </contour>
    </TTGlyph>
    <TTGlyph name="parenleft" xMin="19" yMin="-113" xMax="291" yMax="676">
      <contour>
        <pt x="166" y="-113" on="1"/>
        <pt x="19" y="-113" on="1"/>
        <pt x="144" y="676" on="1"/>
        <pt x="291" y="676" on="1"/>
        <pt x="278" y="594" on="1"/>
        <pt x="207" y="594" on="1"/>
        <pt x="109" y="-31" on="1"/>
        <pt x="179" y="-31" on="1"/>
      </contour>
    </TTGlyph>
    <TTGlyph name="parenright" xMin="19" yMin="-113" xMax="291" yMax="676">
      <contour>
        <pt x="19" y="-113" on="1"/>
        <pt x="166" y="-113" on="1"/>
        <pt x="291" y="676" on="1"/>
        <pt x="144" y="676" on="1"/>
        <pt x="131" y="594" on="1"/>
        <pt x="202" y="594" on="1"/>
        <pt x="103" y="-31" on="1"/>
        <pt x="33" y="-31" on="1"/>
      </contour>
    </TTGlyph>
    <TTGlyph name="percent" xMin="16" yMin="-34" xMax="507" yMax="589">
      <contour>
        <pt x="446" y="589" on="1"/>
        <pt x="16" y="4" on="1"/>
        <pt x="76" y="-34" on="1"/>
        <pt x="506" y="551" on="1"/>
      </contour>
      <contour>
        <pt x="34" y="358" on="1"/>
        <pt x="67" y="567" on="1"/>
        <pt x="257" y="567" on="1"/>
        <pt x="224" y="358" on="1"/>
      </contour>
      <contour>
        <pt x="195" y="523" on="1"/>
        <pt x="118" y="522" on="1"/>
        <pt x="98" y="401" on="1"/>
        <pt x="175" y="401" on="1"/>
      </contour>
      <contour>
        <pt x="284" y="0" on="1"/>
        <pt x="316" y="209" on="1"/>
        <pt x="507" y="209" on="1"/>
        <pt x="474" y="0" on="1"/>
      </contour>
      <contour>
        <pt x="444" y="164" on="1"/>
        <pt x="368" y="164" on="1"/>
        <pt x="349" y="43" on="1"/>
        <pt x="426" y="43" on="1"/>
      </contour>
    </TTGlyph>
    <TTGlyph name="period" xMin="72" yMin="0" xMax="168" yMax="123">
      <contour>
        <pt x="92" y="123" on="1"/>
        <pt x="72" y="0" on="1"/>
        <pt x="147" y="0" on="1"/>
        <pt x="168" y="123" on="1"/>
      </contour>
    </TTGlyph>
    <TTGlyph name="plus" xMin="23" yMin="0" xMax="474" yMax="451">
      <contour>
        <pt x="164" y="0" on="1"/>
        <pt x="197" y="205" on="1"/>
        <pt x="23" y="205" on="1"/>
        <pt x="34" y="276" on="1"/>
        <pt x="208" y="276" on="1"/>
        <pt x="236" y="451" on="1"/>
        <pt x="317" y="451" on="1"/>
        <pt x="290" y="276" on="1"/>
        <pt x="474" y="276" on="1"/>
        <pt x="463" y="205" on="1"/>
        <pt x="279" y="205" on="1"/>
        <pt x="246" y="0" on="1"/>
      </contour>
    </TTGlyph>
    <TTGlyph name="plusminus" xMin="-19" yMin="-123" xMax="483" yMax="451">
      <contour>
        <pt x="421" y="-123" on="1"/>
        <pt x="432" y="-51" on="1"/>
        <pt x="-8" y="-51" on="1"/>
        <pt x="-19" y="-123" on="1"/>
      </contour>
      <contour>
        <pt x="174" y="0" on="1"/>
        <pt x="206" y="205" on="1"/>
        <pt x="32" y="205" on="1"/>
        <pt x="43" y="276" on="1"/>
        <pt x="217" y="276" on="1"/>
        <pt x="245" y="451" on="1"/>
        <pt x="327" y="451" on="1"/>
        <pt x="299" y="276" on="1"/>
        <pt x="483" y="276" on="1"/>
        <pt x="472" y="205" on="1"/>
        <pt x="288" y="205" on="1"/>
        <pt x="256" y="0" on="1"/>
      </contour>
    </TTGlyph>
    <TTGlyph name="q" xMin="65" yMin="-225" xMax="453" yMax="451">
      <contour>
        <pt x="306" y="0" on="1"/>
        <pt x="65" y="0" on="1"/>
        <pt x="135" y="451" on="1"/>
        <pt x="453" y="451" on="1"/>
        <pt x="346" y="-225" on="1"/>
        <pt x="270" y="-225" on="1"/>
      </contour>
      <contour>
        <pt x="366" y="377" on="1"/>
        <pt x="204" y="376" on="1"/>
        <pt x="156" y="72" on="1"/>
        <pt x="317" y="72" on="1"/>
      </contour>
    </TTGlyph>
    <TTGlyph name="question" xMin="120" yMin="0" xMax="447" yMax="635">
      <contour>
        <pt x="132" y="635" on="1"/>
        <pt x="447" y="635" on="1"/>
        <pt x="392" y="287" on="1"/>
        <pt x="257" y="287" on="1"/>
        <pt x="243" y="195" on="1"/>
        <pt x="165" y="195" on="1"/>
        <pt x="190" y="357" on="1"/>
        <pt x="330" y="357" on="1"/>
        <pt x="362" y="561" on="1"/>
        <pt x="120" y="561" on="1"/>
      </contour>
      <contour>
        <pt x="154" y="123" on="1"/>
        <pt x="134" y="0" on="1"/>
        <pt x="210" y="0" on="1"/>
        <pt x="229" y="123" on="1"/>
      </contour>
    </TTGlyph>
    <TTGlyph name="questiondown" xMin="31" yMin="0" xMax="358" yMax="635">
      <contour>
        <pt x="346" y="0" on="1"/>
        <pt x="31" y="0" on="1"/>
        <pt x="86" y="348" on="1"/>
        <pt x="221" y="348" on="1"/>
        <pt x="236" y="440" on="1"/>
        <pt x="313" y="440" on="1"/>
        <pt x="288" y="278" on="1"/>
        <pt x="148" y="278" on="1"/>
        <pt x="116" y="74" on="1"/>
        <pt x="358" y="74" on="1"/>
      </contour>
      <contour>
        <pt x="325" y="512" on="1"/>
        <pt x="344" y="635" on="1"/>
        <pt x="268" y="635" on="1"/>
        <pt x="249" y="512" on="1"/>
      </contour>
    </TTGlyph>
    <TTGlyph name="quotedbl" xMin="5" yMin="481" xMax="214" yMax="676">
      <contour>
        <pt x="36" y="676" on="1"/>
        <pt x="5" y="481" on="1"/>
        <pt x="81" y="481" on="1"/>
        <pt x="112" y="676" on="1"/>
      </contour>
      <contour>
        <pt x="138" y="676" on="1"/>
        <pt x="108" y="481" on="1"/>
        <pt x="183" y="481" on="1"/>
        <pt x="214" y="676" on="1"/>
      </contour>
    </TTGlyph>
    <TTGlyph name="quotedblbase" xMin="-37" yMin="-82" xMax="246" yMax="123">
      <contour>
        <pt x="86" y="-82" on="1"/>
        <pt x="160" y="123" on="1"/>
        <pt x="246" y="123" on="1"/>
        <pt x="162" y="-82" on="1"/>
      </contour>
      <contour>
        <pt x="-37" y="-82" on="1"/>
        <pt x="37" y="123" on="1"/>
        <pt x="123" y="123" on="1"/>
        <pt x="39" y="-82" on="1"/>
      </contour>
    </TTGlyph>
    <TTGlyph name="quotedblleft" xMin="4" yMin="430" xMax="297" yMax="635">
      <contour>
        <pt x="127" y="430" on="1"/>
        <pt x="221" y="635" on="1"/>
        <pt x="297" y="635" on="1"/>
        <pt x="213" y="430" on="1"/>
      </contour>
      <contour>
        <pt x="4" y="430" on="1"/>
        <pt x="98" y="635" on="1"/>
        <pt x="174" y="635" on="1"/>
        <pt x="90" y="430" on="1"/>
      </contour>
    </TTGlyph>
    <TTGlyph name="quotedblright" xMin="-37" yMin="430" xMax="246" yMax="635">
      <contour>
        <pt x="86" y="430" on="1"/>
        <pt x="160" y="635" on="1"/>
        <pt x="246" y="635" on="1"/>
        <pt x="162" y="430" on="1"/>
      </contour>
      <contour>
        <pt x="-37" y="430" on="1"/>
        <pt x="37" y="635" on="1"/>
        <pt x="123" y="635" on="1"/>
        <pt x="39" y="430" on="1"/>
      </contour>
    </TTGlyph>
    <TTGlyph name="quoteleft" xMin="4" yMin="430" xMax="174" yMax="635">
      <contour>
        <pt x="4" y="430" on="1"/>
        <pt x="98" y="635" on="1"/>
        <pt x="174" y="635" on="1"/>
        <pt x="90" y="430" on="1"/>
      </contour>
    </TTGlyph>
    <TTGlyph name="quoteright" xMin="-37" yMin="430" xMax="123" yMax="635">
      <contour>
        <pt x="-37" y="430" on="1"/>
        <pt x="37" y="635" on="1"/>
        <pt x="123" y="635" on="1"/>
        <pt x="39" y="430" on="1"/>
      </contour>
    </TTGlyph>
    <TTGlyph name="quotesinglbase" xMin="-37" yMin="-82" xMax="123" yMax="123">
      <contour>
        <pt x="-37" y="-82" on="1"/>
        <pt x="37" y="123" on="1"/>
        <pt x="123" y="123" on="1"/>
        <pt x="39" y="-82" on="1"/>
      </contour>
    </TTGlyph>
    <TTGlyph name="quotesingle" xMin="5" yMin="481" xMax="112" yMax="676">
      <contour>
        <pt x="36" y="676" on="1"/>
        <pt x="5" y="481" on="1"/>
        <pt x="81" y="481" on="1"/>
        <pt x="112" y="676" on="1"/>
      </contour>
    </TTGlyph>
    <TTGlyph name="r" xMin="46" yMin="0" xMax="384" yMax="451">
      <contour>
        <pt x="296" y="377" on="1"/>
        <pt x="185" y="376" on="1"/>
        <pt x="126" y="0" on="1"/>
        <pt x="46" y="0" on="1"/>
        <pt x="118" y="451" on="1"/>
        <pt x="384" y="451" on="1"/>
        <pt x="358" y="287" on="1"/>
        <pt x="283" y="287" on="1"/>
      </contour>
    </TTGlyph>
    <TTGlyph name="registered" xMin="29" yMin="-76" xMax="637" yMax="594">
      <contour>
        <pt x="117" y="2" on="1"/>
        <pt x="463" y="2" on="1"/>
        <pt x="546" y="521" on="1"/>
        <pt x="200" y="521" on="1"/>
      </contour>
      <contour>
        <pt x="29" y="-76" on="1"/>
        <pt x="135" y="594" on="1"/>
        <pt x="637" y="594" on="1"/>
        <pt x="530" y="-76" on="1"/>
      </contour>
      <contour>
        <pt x="446" y="102" on="1"/>
        <pt x="367" y="102" on="1"/>
        <pt x="319" y="236" on="1"/>
        <pt x="297" y="236" on="1"/>
        <pt x="276" y="102" on="1"/>
        <pt x="211" y="102" on="1"/>
        <pt x="262" y="430" on="1"/>
        <pt x="446" y="430" on="1"/>
        <pt x="416" y="236" on="1"/>
        <pt x="379" y="236" on="1"/>
      </contour>
      <contour>
        <pt x="365" y="287" on="1"/>
        <pt x="378" y="369" on="1"/>
        <pt x="318" y="369" on="1"/>
        <pt x="305" y="287" on="1"/>
      </contour>
    </TTGlyph>
    <TTGlyph name="ring" xMin="68" yMin="520" xMax="291" yMax="729">
      <contour>
        <pt x="68" y="520" on="1"/>
        <pt x="100" y="729" on="1"/>
        <pt x="291" y="729" on="1"/>
        <pt x="258" y="520" on="1"/>
      </contour>
      <contour>
        <pt x="228" y="685" on="1"/>
        <pt x="152" y="684" on="1"/>
        <pt x="132" y="563" on="1"/>
        <pt x="209" y="563" on="1"/>
      </contour>
    </TTGlyph>
    <TTGlyph name="s" xMin="46" yMin="0" xMax="435" yMax="451">
      <contour>
        <pt x="134" y="75" on="1"/>
        <pt x="140" y="113" on="1"/>
        <pt x="65" y="113" on="1"/>
        <pt x="46" y="0" on="1"/>
        <pt x="361" y="1" on="1"/>
        <pt x="398" y="232" on="1"/>
        <pt x="172" y="287" on="1"/>
        <pt x="185" y="376" on="1"/>
        <pt x="347" y="376" on="1"/>
        <pt x="334" y="287" on="1"/>
        <pt x="410" y="287" on="1"/>
        <pt x="435" y="451" on="1"/>
        <pt x="118" y="451" on="1"/>
        <pt x="80" y="215" on="1"/>
        <pt x="309" y="160" on="1"/>
        <pt x="296" y="75" on="1"/>
      </contour>
    </TTGlyph>
    <TTGlyph name="scaron" xMin="46" yMin="0" xMax="435" yMax="680">
      <contour>
        <pt x="134" y="75" on="1"/>
        <pt x="140" y="113" on="1"/>
        <pt x="65" y="113" on="1"/>
        <pt x="46" y="0" on="1"/>
        <pt x="361" y="1" on="1"/>
        <pt x="398" y="232" on="1"/>
        <pt x="172" y="287" on="1"/>
        <pt x="185" y="376" on="1"/>
        <pt x="347" y="376" on="1"/>
        <pt x="334" y="287" on="1"/>
        <pt x="410" y="287" on="1"/>
        <pt x="435" y="451" on="1"/>
        <pt x="118" y="451" on="1"/>
        <pt x="80" y="215" on="1"/>
        <pt x="309" y="160" on="1"/>
        <pt x="296" y="75" on="1"/>
      </contour>
      <contour>
        <pt x="210" y="487" on="1"/>
        <pt x="93" y="627" on="1"/>
        <pt x="157" y="680" on="1"/>
        <pt x="226" y="588" on="1"/>
        <pt x="325" y="680" on="1"/>
        <pt x="372" y="627" on="1"/>
      </contour>
    </TTGlyph>
    <TTGlyph name="section" xMin="45" yMin="-13" xMax="329" yMax="454">
      <contour>
        <pt x="245" y="258" on="1"/>
        <pt x="195" y="271" on="1"/>
        <pt x="139" y="247" on="1"/>
        <pt x="129" y="182" on="1"/>
        <pt x="171" y="171" on="1"/>
        <pt x="234" y="194" on="1"/>
      </contour>
      <contour>
        <pt x="284" y="179" on="1"/>
        <pt x="211" y="157" on="1"/>
        <pt x="278" y="140" on="1"/>
        <pt x="253" y="-12" on="1"/>
        <pt x="45" y="-13" on="1"/>
        <pt x="56" y="61" on="1"/>
        <pt x="106" y="61" on="1"/>
        <pt x="102" y="36" on="1"/>
        <pt x="210" y="36" on="1"/>
        <pt x="218" y="92" on="1"/>
        <pt x="68" y="129" on="1"/>
        <pt x="88" y="262" on="1"/>
        <pt x="151" y="285" on="1"/>
        <pt x="94" y="298" on="1"/>
        <pt x="119" y="454" on="1"/>
        <pt x="329" y="454" on="1"/>
        <pt x="311" y="345" on="1"/>
        <pt x="261" y="345" on="1"/>
        <pt x="270" y="404" on="1"/>
        <pt x="164" y="404" on="1"/>
        <pt x="155" y="345" on="1"/>
        <pt x="304" y="309" on="1"/>
        <pt x="302" y="295" on="0"/>
        <pt x="288" y="207" on="0"/>
      </contour>
    </TTGlyph>
    <TTGlyph name="semicolon" xMin="9" yMin="-82" xMax="200" yMax="451">
      <contour>
        <pt x="124" y="451" on="1"/>
        <pt x="104" y="328" on="1"/>
        <pt x="180" y="328" on="1"/>
        <pt x="200" y="451" on="1"/>
      </contour>
      <contour>
        <pt x="9" y="-82" on="1"/>
        <pt x="92" y="123" on="1"/>
        <pt x="168" y="123" on="1"/>
        <pt x="85" y="-82" on="1"/>
      </contour>
    </TTGlyph>
    <TTGlyph name="seven" xMin="114" yMin="0" xMax="450" yMax="450">
      <contour>
        <pt x="437" y="372" on="1"/>
        <pt x="450" y="450" on="1"/>
        <pt x="134" y="450" on="1"/>
        <pt x="122" y="372" on="1"/>
        <pt x="349" y="372" on="1"/>
        <pt x="114" y="1" on="1"/>
        <pt x="224" y="0" on="1"/>
      </contour>
    </TTGlyph>
    <TTGlyph name="six" xMin="61" yMin="0" xMax="451" yMax="450">
      <contour>
        <pt x="133" y="450" on="1"/>
        <pt x="451" y="450" on="1"/>
        <pt x="438" y="373" on="1"/>
        <pt x="197" y="372" on="1"/>
        <pt x="181" y="276" on="1"/>
        <pt x="423" y="276" on="1"/>
        <pt x="379" y="0" on="1"/>
        <pt x="61" y="0" on="1"/>
      </contour>
      <contour>
        <pt x="329" y="196" on="1"/>
        <pt x="168" y="196" on="1"/>
        <pt x="150" y="75" on="1"/>
        <pt x="310" y="75" on="1"/>
      </contour>
    </TTGlyph>
    <TTGlyph name="slash" xMin="-66" yMin="-153" xMax="305" yMax="675">
      <contour>
        <pt x="234" y="675" on="1"/>
        <pt x="-66" y="-136" on="1"/>
        <pt x="5" y="-153" on="1"/>
        <pt x="305" y="658" on="1"/>
      </contour>
    </TTGlyph>
    <TTGlyph name="sterling" xMin="46" yMin="0" xMax="435" yMax="451">
      <contour>
        <pt x="57" y="71" on="1"/>
        <pt x="156" y="71" on="1"/>
        <pt x="177" y="205" on="1"/>
        <pt x="79" y="205" on="1"/>
        <pt x="90" y="275" on="1"/>
        <pt x="188" y="275" on="1"/>
        <pt x="216" y="451" on="1"/>
        <pt x="435" y="451" on="1"/>
        <pt x="424" y="380" on="1"/>
        <pt x="281" y="380" on="1"/>
        <pt x="264" y="275" on="1"/>
        <pt x="408" y="275" on="1"/>
        <pt x="396" y="205" on="1"/>
        <pt x="253" y="205" on="1"/>
        <pt x="231" y="71" on="1"/>
        <pt x="380" y="71" on="1"/>
        <pt x="369" y="0" on="1"/>
        <pt x="46" y="0" on="1"/>
      </contour>
    </TTGlyph>
    <TTGlyph name="t" xMin="95" yMin="0" xMax="384" yMax="584">
      <contour>
        <pt x="312" y="0" on="1"/>
        <pt x="128" y="0" on="1"/>
        <pt x="187" y="379" on="1"/>
        <pt x="95" y="379" on="1"/>
        <pt x="108" y="451" on="1"/>
        <pt x="200" y="451" on="1"/>
        <pt x="220" y="584" on="1"/>
        <pt x="296" y="584" on="1"/>
        <pt x="275" y="451" on="1"/>
        <pt x="384" y="451" on="1"/>
        <pt x="372" y="379" on="1"/>
        <pt x="263" y="379" on="1"/>
        <pt x="215" y="72" on="1"/>
        <pt x="324" y="72" on="1"/>
      </contour>
    </TTGlyph>
    <TTGlyph name="three" xMin="61" yMin="0" xMax="449" yMax="451">
      <contour>
        <pt x="329" y="196" on="1"/>
        <pt x="310" y="75" on="1"/>
        <pt x="150" y="75" on="1"/>
        <pt x="159" y="133" on="1"/>
        <pt x="83" y="133" on="1"/>
        <pt x="61" y="0" on="1"/>
        <pt x="379" y="0" on="1"/>
        <pt x="420" y="256" on="1"/>
        <pt x="304" y="256" on="1"/>
        <pt x="436" y="372" on="1"/>
        <pt x="449" y="450" on="1"/>
        <pt x="133" y="451" on="1"/>
        <pt x="121" y="376" on="1"/>
        <pt x="317" y="376" on="1"/>
        <pt x="184" y="256" on="1"/>
        <pt x="174" y="196" on="1"/>
      </contour>
    </TTGlyph>
    <TTGlyph name="trademark" xMin="32" yMin="313" xMax="673" yMax="664">
      <contour>
        <pt x="488" y="313" on="1"/>
        <pt x="409" y="313" on="1"/>
        <pt x="439" y="510" on="1"/>
        <pt x="374" y="510" on="1"/>
        <pt x="343" y="313" on="1"/>
        <pt x="267" y="313" on="1"/>
        <pt x="310" y="584" on="1"/>
        <pt x="673" y="584" on="1"/>
        <pt x="630" y="313" on="1"/>
        <pt x="551" y="313" on="1"/>
        <pt x="582" y="510" on="1"/>
        <pt x="519" y="510" on="1"/>
      </contour>
      <contour>
        <pt x="191" y="313" on="1"/>
        <pt x="56" y="313" on="1"/>
        <pt x="87" y="510" on="1"/>
        <pt x="32" y="510" on="1"/>
        <pt x="44" y="584" on="1"/>
        <pt x="99" y="584" on="1"/>
        <pt x="112" y="664" on="1"/>
        <pt x="187" y="664" on="1"/>
        <pt x="175" y="584" on="1"/>
        <pt x="234" y="584" on="1"/>
        <pt x="222" y="510" on="1"/>
        <pt x="163" y="510" on="1"/>
        <pt x="143" y="387" on="1"/>
        <pt x="203" y="387" on="1"/>
      </contour>
    </TTGlyph>
    <TTGlyph name="two" xMin="63" yMin="0" xMax="451" yMax="451">
      <contour>
        <pt x="391" y="75" on="1"/>
        <pt x="379" y="0" on="1"/>
        <pt x="63" y="1" on="1"/>
        <pt x="76" y="79" on="1"/>
        <pt x="343" y="276" on="1"/>
        <pt x="358" y="376" on="1"/>
        <pt x="197" y="376" on="1"/>
        <pt x="183" y="287" on="1"/>
        <pt x="108" y="287" on="1"/>
        <pt x="133" y="451" on="1"/>
        <pt x="451" y="451" on="1"/>
        <pt x="415" y="225" on="1"/>
        <pt x="195" y="75" on="1"/>
      </contour>
    </TTGlyph>
    <TTGlyph name="u" xMin="46" yMin="0" xMax="435" yMax="451">
      <contour>
        <pt x="435" y="451" on="1"/>
        <pt x="364" y="0" on="1"/>
        <pt x="46" y="0" on="1"/>
        <pt x="118" y="451" on="1"/>
        <pt x="194" y="451" on="1"/>
        <pt x="133" y="72" on="1"/>
        <pt x="295" y="72" on="1"/>
        <pt x="355" y="451" on="1"/>
      </contour>
    </TTGlyph>
    <TTGlyph name="uacute" xMin="46" yMin="0" xMax="435" yMax="676">
      <contour>
        <pt x="435" y="451" on="1"/>
        <pt x="364" y="0" on="1"/>
        <pt x="46" y="0" on="1"/>
        <pt x="118" y="451" on="1"/>
        <pt x="194" y="451" on="1"/>
        <pt x="133" y="72" on="1"/>
        <pt x="295" y="72" on="1"/>
        <pt x="355" y="451" on="1"/>
      </contour>
      <contour>
        <pt x="302" y="676" on="1"/>
        <pt x="76" y="543" on="1"/>
        <pt x="122" y="481" on="1"/>
        <pt x="348" y="614" on="1"/>
      </contour>
    </TTGlyph>
    <TTGlyph name="ucircumflex" xMin="46" yMin="0" xMax="435" yMax="680">
      <contour>
        <pt x="435" y="451" on="1"/>
        <pt x="364" y="0" on="1"/>
        <pt x="46" y="0" on="1"/>
        <pt x="118" y="451" on="1"/>
        <pt x="194" y="451" on="1"/>
        <pt x="133" y="72" on="1"/>
        <pt x="295" y="72" on="1"/>
        <pt x="355" y="451" on="1"/>
      </contour>
      <contour>
        <pt x="241" y="680" on="1"/>
        <pt x="357" y="541" on="1"/>
        <pt x="294" y="487" on="1"/>
        <pt x="224" y="580" on="1"/>
        <pt x="126" y="487" on="1"/>
        <pt x="79" y="541" on="1"/>
      </contour>
    </TTGlyph>
    <TTGlyph name="udieresis" xMin="46" yMin="0" xMax="435" yMax="676">
      <contour>
        <pt x="435" y="451" on="1"/>
        <pt x="364" y="0" on="1"/>
        <pt x="46" y="0" on="1"/>
        <pt x="118" y="451" on="1"/>
        <pt x="194" y="451" on="1"/>
        <pt x="133" y="72" on="1"/>
        <pt x="295" y="72" on="1"/>
        <pt x="355" y="451" on="1"/>
      </contour>
      <contour>
        <pt x="92" y="676" on="1"/>
        <pt x="72" y="543" on="1"/>
        <pt x="147" y="543" on="1"/>
        <pt x="168" y="676" on="1"/>
      </contour>
      <contour>
        <pt x="276" y="676" on="1"/>
        <pt x="256" y="543" on="1"/>
        <pt x="332" y="543" on="1"/>
        <pt x="352" y="676" on="1"/>
      </contour>
    </TTGlyph>
    <TTGlyph name="ugrave" xMin="46" yMin="0" xMax="435" yMax="676">
      <contour>
        <pt x="435" y="451" on="1"/>
        <pt x="364" y="0" on="1"/>
        <pt x="46" y="0" on="1"/>
        <pt x="118" y="451" on="1"/>
        <pt x="194" y="451" on="1"/>
        <pt x="133" y="72" on="1"/>
        <pt x="295" y="72" on="1"/>
        <pt x="355" y="451" on="1"/>
      </contour>
      <contour>
        <pt x="153" y="676" on="1"/>
        <pt x="336" y="543" on="1"/>
        <pt x="271" y="481" on="1"/>
        <pt x="88" y="614" on="1"/>
      </contour>
    </TTGlyph>
    <TTGlyph name="underscore" xMin="19" yMin="-113" xMax="472" yMax="-41">
      <contour>
        <pt x="460" y="-113" on="1"/>
        <pt x="472" y="-41" on="1"/>
        <pt x="32" y="-41" on="1"/>
        <pt x="19" y="-113" on="1"/>
      </contour>
    </TTGlyph>
    <TTGlyph name="v" xMin="67" yMin="0" xMax="456" yMax="451">
      <contour>
        <pt x="456" y="451" on="1"/>
        <pt x="261" y="0" on="1"/>
        <pt x="118" y="0" on="1"/>
        <pt x="67" y="451" on="1"/>
        <pt x="169" y="451" on="1"/>
        <pt x="190" y="72" on="1"/>
        <pt x="219" y="72" on="1"/>
        <pt x="361" y="451" on="1"/>
      </contour>
    </TTGlyph>
    <TTGlyph name="w" xMin="46" yMin="0" xMax="671" yMax="451">
      <contour>
        <pt x="353" y="451" on="1"/>
        <pt x="435" y="451" on="1"/>
        <pt x="375" y="72" on="1"/>
        <pt x="535" y="72" on="1"/>
        <pt x="595" y="451" on="1"/>
        <pt x="671" y="451" on="1"/>
        <pt x="599" y="0" on="1"/>
        <pt x="46" y="0" on="1"/>
        <pt x="118" y="451" on="1"/>
        <pt x="198" y="451" on="1"/>
        <pt x="137" y="72" on="1"/>
        <pt x="293" y="72" on="1"/>
      </contour>
    </TTGlyph>
    <TTGlyph name="x" xMin="-5" yMin="0" xMax="476" yMax="451">
      <contour>
        <pt x="415" y="0" on="1"/>
        <pt x="314" y="0" on="1"/>
        <pt x="242" y="184" on="1"/>
        <pt x="223" y="184" on="1"/>
        <pt x="91" y="0" on="1"/>
        <pt x="-5" y="0" on="1"/>
        <pt x="162" y="236" on="1"/>
        <pt x="77" y="451" on="1"/>
        <pt x="173" y="451" on="1"/>
        <pt x="236" y="266" on="1"/>
        <pt x="254" y="266" on="1"/>
        <pt x="376" y="451" on="1"/>
        <pt x="476" y="451" on="1"/>
        <pt x="324" y="236" on="1"/>
      </contour>
    </TTGlyph>
    <TTGlyph name="y" xMin="32" yMin="-184" xMax="450" yMax="451">
      <contour>
        <pt x="450" y="451" on="1"/>
        <pt x="349" y="-184" on="1"/>
        <pt x="32" y="-184" on="1"/>
        <pt x="43" y="-113" on="1"/>
        <pt x="281" y="-113" on="1"/>
        <pt x="298" y="0" on="1"/>
        <pt x="62" y="0" on="1"/>
        <pt x="134" y="451" on="1"/>
        <pt x="208" y="451" on="1"/>
        <pt x="148" y="74" on="1"/>
        <pt x="310" y="74" on="1"/>
        <pt x="370" y="451" on="1"/>
      </contour>
    </TTGlyph>
    <TTGlyph name="yacute" xMin="32" yMin="-184" xMax="450" yMax="696">
      <contour>
        <pt x="305" y="696" on="1"/>
        <pt x="80" y="563" on="1"/>
        <pt x="125" y="502" on="1"/>
        <pt x="351" y="635" on="1"/>
      </contour>
      <contour>
        <pt x="450" y="451" on="1"/>
        <pt x="349" y="-184" on="1"/>
        <pt x="32" y="-184" on="1"/>
        <pt x="43" y="-113" on="1"/>
        <pt x="281" y="-113" on="1"/>
        <pt x="298" y="0" on="1"/>
        <pt x="62" y="0" on="1"/>
        <pt x="134" y="451" on="1"/>
        <pt x="208" y="451" on="1"/>
        <pt x="148" y="74" on="1"/>
        <pt x="310" y="74" on="1"/>
        <pt x="370" y="451" on="1"/>
      </contour>
    </TTGlyph>
    <TTGlyph name="ydieresis" xMin="32" yMin="-184" xMax="450" yMax="676">
      <contour>
        <pt x="450" y="451" on="1"/>
        <pt x="349" y="-184" on="1"/>
        <pt x="32" y="-184" on="1"/>
        <pt x="43" y="-113" on="1"/>
        <pt x="281" y="-113" on="1"/>
        <pt x="298" y="0" on="1"/>
        <pt x="62" y="0" on="1"/>
        <pt x="134" y="451" on="1"/>
        <pt x="208" y="451" on="1"/>
        <pt x="148" y="74" on="1"/>
        <pt x="310" y="74" on="1"/>
        <pt x="370" y="451" on="1"/>
      </contour>
      <contour>
        <pt x="92" y="676" on="1"/>
        <pt x="72" y="543" on="1"/>
        <pt x="147" y="543" on="1"/>
        <pt x="168" y="676" on="1"/>
      </contour>
      <contour>
        <pt x="276" y="676" on="1"/>
        <pt x="256" y="543" on="1"/>
        <pt x="332" y="543" on="1"/>
        <pt x="352" y="676" on="1"/>
      </contour>
    </TTGlyph>
    <TTGlyph name="yen" xMin="10" yMin="0" xMax="481" yMax="573">
      <contour>
        <pt x="451" y="123" on="1"/>
        <pt x="384" y="123" on="1"/>
        <pt x="365" y="0" on="1"/>
        <pt x="47" y="0" on="1"/>
        <pt x="58" y="72" on="1"/>
        <pt x="296" y="72" on="1"/>
        <pt x="304" y="123" on="1"/>
        <pt x="10" y="123" on="1"/>
        <pt x="22" y="195" on="1"/>
        <pt x="315" y="195" on="1"/>
        <pt x="324" y="246" on="1"/>
        <pt x="30" y="246" on="1"/>
        <pt x="41" y="317" on="1"/>
        <pt x="335" y="317" on="1"/>
        <pt x="346" y="389" on="1"/>
        <pt x="111" y="389" on="1"/>
        <pt x="139" y="573" on="1"/>
        <pt x="213" y="573" on="1"/>
        <pt x="196" y="463" on="1"/>
        <pt x="357" y="463" on="1"/>
        <pt x="375" y="573" on="1"/>
        <pt x="455" y="573" on="1"/>
        <pt x="415" y="317" on="1"/>
        <pt x="481" y="317" on="1"/>
        <pt x="470" y="246" on="1"/>
        <pt x="403" y="246" on="1"/>
        <pt x="395" y="195" on="1"/>
        <pt x="462" y="195" on="1"/>
      </contour>
    </TTGlyph>
    <TTGlyph name="z" xMin="46" yMin="0" xMax="435" yMax="451">
      <contour>
        <pt x="158" y="72" on="1"/>
        <pt x="367" y="72" on="1"/>
        <pt x="355" y="0" on="1"/>
        <pt x="46" y="0" on="1"/>
        <pt x="57" y="72" on="1"/>
        <pt x="343" y="376" on="1"/>
        <pt x="105" y="376" on="1"/>
        <pt x="118" y="451" on="1"/>
        <pt x="435" y="451" on="1"/>
        <pt x="423" y="373" on="1"/>
      </contour>
    </TTGlyph>
    <TTGlyph name="zcaron" xMin="46" yMin="0" xMax="435" yMax="680">
      <contour>
        <pt x="158" y="72" on="1"/>
        <pt x="367" y="72" on="1"/>
        <pt x="355" y="0" on="1"/>
        <pt x="46" y="0" on="1"/>
        <pt x="57" y="72" on="1"/>
        <pt x="343" y="376" on="1"/>
        <pt x="105" y="376" on="1"/>
        <pt x="118" y="451" on="1"/>
        <pt x="435" y="451" on="1"/>
        <pt x="423" y="373" on="1"/>
      </contour>
      <contour>
        <pt x="210" y="487" on="1"/>
        <pt x="93" y="627" on="1"/>
        <pt x="157" y="680" on="1"/>
        <pt x="226" y="588" on="1"/>
        <pt x="325" y="680" on="1"/>
        <pt x="372" y="627" on="1"/>
      </contour>
    </TTGlyph>
    <TTGlyph name="zero" xMin="61" yMin="0" xMax="451" yMax="451">
      <contour>
        <pt x="61" y="0" on="1"/>
        <pt x="133" y="451" on="1"/>
        <pt x="451" y="451" on="1"/>
        <pt x="379" y="0" on="1"/>
      </contour>
      <contour>
        <pt x="362" y="377" on="1"/>
        <pt x="201" y="376" on="1"/>
        <pt x="153" y="72" on="1"/>
        <pt x="314" y="72" on="1"/>
      </contour>
    </TTGlyph>
</ttFont>
